<svg width="1919" height="201" viewBox="0 0 1919 201" fill="none" xmlns="http://www.w3.org/2000/svg">
<path d="M355.647 204.274C341.519 204.274 328.363 201.714 316.178 196.593C304.17 191.471 293.662 184.319 284.656 175.137C275.65 165.954 268.586 155.182 263.465 142.82C258.52 130.458 256.048 116.949 256.048 102.292C256.048 87.6346 258.52 74.1253 263.465 61.7638C268.41 49.2257 275.385 38.4535 284.391 29.4472C293.398 20.2644 303.905 13.2007 315.913 8.25605C328.098 3.13485 341.343 0.574255 355.647 0.574255C369.951 0.574255 382.754 2.95826 394.056 7.72628C405.534 12.4943 415.247 18.8516 423.194 26.7983C431.14 34.745 436.791 43.5747 440.146 53.2873L403.857 70.77C400.501 61.234 394.585 53.3756 386.109 47.1948C377.809 40.8375 367.655 37.6588 355.647 37.6588C343.992 37.6588 333.749 40.396 324.919 45.8704C316.09 51.3448 309.203 58.9383 304.258 68.6509C299.49 78.1869 297.106 89.4006 297.106 102.292C297.106 115.183 299.49 126.485 304.258 136.198C309.203 145.91 316.09 153.504 324.919 158.978C333.749 164.453 343.992 167.19 355.647 167.19C367.655 167.19 377.809 164.099 386.109 157.919C394.585 151.561 400.501 143.615 403.857 134.079L440.146 151.561C436.791 161.274 431.14 170.104 423.194 178.05C415.247 185.997 405.534 192.354 394.056 197.122C382.754 201.89 369.951 204.274 355.647 204.274ZM532.777 204.274C518.473 204.274 505.405 201.007 493.573 194.473C481.918 187.94 472.559 179.022 465.495 167.72C458.608 156.241 455.164 143.261 455.164 128.781C455.164 114.124 458.608 101.144 465.495 89.8421C472.559 78.5401 481.918 69.6221 493.573 63.0882C505.405 56.5543 518.473 53.2873 532.777 53.2873C547.081 53.2873 560.061 56.5543 571.716 63.0882C583.371 69.6221 592.642 78.5401 599.529 89.8421C606.593 101.144 610.125 114.124 610.125 128.781C610.125 143.261 606.593 156.241 599.529 167.72C592.642 179.022 583.371 187.94 571.716 194.473C560.061 201.007 547.081 204.274 532.777 204.274ZM532.777 168.514C540.017 168.514 546.286 166.837 551.584 163.481C557.059 160.126 561.297 155.446 564.299 149.442C567.478 143.438 569.067 136.551 569.067 128.781C569.067 121.011 567.478 114.212 564.299 108.384C561.297 102.38 557.059 97.7005 551.584 94.3452C546.286 90.8133 540.017 89.0474 532.777 89.0474C525.537 89.0474 519.179 90.8133 513.705 94.3452C508.231 97.7005 503.904 102.38 500.725 108.384C497.723 114.212 496.222 121.011 496.222 128.781C496.222 136.551 497.723 143.438 500.725 149.442C503.904 155.446 508.231 160.126 513.705 163.481C519.179 166.837 525.537 168.514 532.777 168.514ZM701.609 204.274C687.482 204.274 674.855 200.919 663.73 194.209C652.604 187.498 643.775 178.403 637.241 166.925C630.884 155.446 627.705 142.732 627.705 128.781C627.705 114.653 630.972 101.939 637.506 90.6367C644.04 79.1582 652.869 70.0636 663.995 63.3531C675.12 56.6426 687.57 53.2873 701.344 53.2873C711.94 53.2873 721.299 55.3181 729.422 59.3798C737.722 63.2648 744.256 68.8275 749.024 76.0678L742.932 84.0145V0.574255H782.665V201.096H745.581V174.607L749.289 182.818C744.345 189.882 737.634 195.268 729.158 198.977C720.681 202.508 711.498 204.274 701.609 204.274ZM706.377 168.514C713.617 168.514 719.975 166.837 725.449 163.481C730.924 160.126 735.162 155.446 738.164 149.442C741.343 143.438 742.932 136.551 742.932 128.781C742.932 121.011 741.343 114.124 738.164 108.119C735.162 102.115 730.924 97.4356 725.449 94.0803C719.975 90.725 713.617 89.0474 706.377 89.0474C699.137 89.0474 692.603 90.8133 686.775 94.3452C681.124 97.7005 676.709 102.38 673.531 108.384C670.352 114.212 668.763 121.011 668.763 128.781C668.763 136.551 670.352 143.438 673.531 149.442C676.709 155.446 681.124 160.126 686.775 163.481C692.603 166.837 699.137 168.514 706.377 168.514ZM881.43 204.274C866.066 204.274 852.733 200.919 841.431 194.209C830.129 187.321 821.388 178.139 815.207 166.66C809.027 155.182 805.936 142.467 805.936 128.516C805.936 114.035 809.115 101.144 815.472 89.8421C822.006 78.5401 830.748 69.6221 841.696 63.0882C852.645 56.5543 865.007 53.2873 878.781 53.2873C890.259 53.2873 900.414 55.1415 909.243 58.85C918.073 62.3818 925.49 67.4147 931.494 73.9487C937.675 80.4826 942.354 88.0761 945.533 96.7292C948.712 105.206 950.301 114.477 950.301 124.543C950.301 127.368 950.124 130.194 949.771 133.019C949.595 135.668 949.153 137.964 948.447 139.906H840.107V110.768H925.931L907.124 124.543C908.89 116.949 908.802 110.239 906.859 104.411C904.917 98.4068 901.473 93.7271 896.528 90.3718C891.76 86.84 885.845 85.074 878.781 85.074C871.894 85.074 865.978 86.7517 861.033 90.1069C856.089 93.4622 852.38 98.4068 849.908 104.941C847.436 111.475 846.464 119.421 846.994 128.781C846.288 136.904 847.259 144.056 849.908 150.237C852.557 156.418 856.618 161.274 862.093 164.806C867.567 168.161 874.189 169.839 881.96 169.839C889.023 169.839 895.027 168.426 899.972 165.6C905.093 162.775 909.067 158.89 911.892 153.945L943.679 169.044C940.853 176.108 936.35 182.289 930.169 187.586C924.165 192.884 917.013 197.034 908.713 200.036C900.414 202.862 891.319 204.274 881.43 204.274ZM1024.21 201.096V3.75292H1107.65C1121.25 3.75292 1132.9 6.04863 1142.62 10.6401C1152.33 15.2315 1159.74 21.8537 1164.87 30.5068C1169.99 38.9832 1172.55 49.3139 1172.55 61.4989C1172.55 70.1519 1170.16 78.4518 1165.4 86.3985C1160.63 94.1686 1152.77 100.703 1141.82 106V85.8687C1152.24 89.9304 1160.27 94.7867 1165.93 100.438C1171.58 106.089 1175.46 112.269 1177.58 118.98C1179.7 125.514 1180.76 132.401 1180.76 139.641C1180.76 159.067 1174.31 174.165 1161.42 184.937C1148.53 195.71 1130.61 201.096 1107.65 201.096H1024.21ZM1065.27 165.336H1112.42C1120.72 165.336 1127.34 162.952 1132.28 158.184C1137.23 153.416 1139.7 147.235 1139.7 139.641C1139.7 131.871 1137.23 125.602 1132.28 120.834C1127.34 116.066 1120.72 113.682 1112.42 113.682H1065.27V165.336ZM1065.27 77.922H1110.56C1116.92 77.922 1121.95 76.1561 1125.66 72.6242C1129.55 68.9158 1131.49 64.0595 1131.49 58.0553C1131.49 52.0511 1129.55 47.2831 1125.66 43.7513C1121.95 40.0428 1116.92 38.1886 1110.56 38.1886H1065.27V77.922ZM1204.18 201.096V56.466H1241.27V91.1665L1238.62 86.1336C1241.8 73.9487 1247.01 65.7371 1254.25 61.4989C1261.66 57.084 1270.41 54.8766 1280.47 54.8766H1288.95V89.3123H1276.5C1266.79 89.3123 1258.93 92.3144 1252.92 98.3185C1246.92 104.146 1243.92 112.446 1243.92 123.218V201.096H1204.18ZM1351.13 204.274C1340.71 204.274 1331.7 202.597 1324.11 199.241C1316.52 195.886 1310.69 191.118 1306.63 184.937C1302.57 178.58 1300.53 171.075 1300.53 162.422C1300.53 154.299 1302.39 147.147 1306.1 140.966C1309.81 134.608 1315.46 129.311 1323.05 125.072C1330.82 120.834 1340.44 117.832 1351.92 116.066L1396.16 108.914V138.052L1359.08 144.674C1353.42 145.734 1349.1 147.588 1346.1 150.237C1343.09 152.709 1341.59 156.329 1341.59 161.097C1341.59 165.512 1343.27 168.956 1346.63 171.428C1349.98 173.9 1354.13 175.137 1359.08 175.137C1365.61 175.137 1371.35 173.724 1376.29 170.898C1381.24 168.073 1385.03 164.276 1387.68 159.508C1390.51 154.563 1391.92 149.177 1391.92 143.35V105.735C1391.92 100.261 1389.71 95.6696 1385.3 91.9612C1381.06 88.2527 1375.23 86.3985 1367.82 86.3985C1360.75 86.3985 1354.48 88.341 1349.01 92.2261C1343.71 96.1111 1339.83 101.232 1337.35 107.59L1305.57 92.491C1308.39 84.3677 1312.9 77.3922 1319.08 71.5647C1325.26 65.7371 1332.67 61.234 1341.33 58.0553C1349.98 54.8766 1359.43 53.2873 1369.67 53.2873C1381.86 53.2873 1392.63 55.4947 1401.99 59.9095C1411.35 64.3244 1418.59 70.5051 1423.71 78.4518C1429.01 86.2219 1431.66 95.3164 1431.66 105.735V201.096H1394.57V177.785L1403.58 176.196C1399.34 182.553 1394.66 187.851 1389.54 192.089C1384.42 196.151 1378.68 199.153 1372.32 201.096C1365.96 203.215 1358.9 204.274 1351.13 204.274ZM1460.8 201.096V56.466H1500.53V201.096H1460.8ZM1460.8 43.4864V3.75292H1500.53V43.4864H1460.8ZM1529.6 201.096V56.466H1566.69V85.074L1564.57 78.7167C1567.93 70.0636 1573.31 63.7063 1580.73 59.6446C1588.32 55.4064 1597.15 53.2873 1607.22 53.2873C1618.17 53.2873 1627.7 55.583 1635.83 60.1744C1644.12 64.7658 1650.57 71.2115 1655.16 79.5114C1659.75 87.6346 1662.05 97.1707 1662.05 108.119V201.096H1622.32V116.596C1622.32 110.945 1621.17 106.089 1618.87 102.027C1616.75 97.9653 1613.66 94.7867 1609.6 92.491C1605.72 90.1952 1601.12 89.0474 1595.83 89.0474C1590.71 89.0474 1586.11 90.1952 1582.05 92.491C1577.99 94.7867 1574.81 97.9653 1572.52 102.027C1570.4 106.089 1569.34 110.945 1569.34 116.596V201.096H1529.6Z" fill="#313542"/>
</svg>
