<svg width="368" height="134" viewBox="0 0 368 134" fill="none" xmlns="http://www.w3.org/2000/svg">
<mask id="path-1-outside-1_1_1791" maskUnits="userSpaceOnUse" x="-1" y="-1" width="370" height="136" fill="black">
<rect fill="white" x="-1" y="-1" width="370" height="136"/>
<path d="M0.630095 131V0.313602H24.4869V57.3245H80.0944V0.313602H104.127V131H80.0944V78.3746H24.4869V131H0.630095ZM184.889 133.105C174.832 133.105 165.885 131 158.05 126.79C150.332 122.58 144.25 116.791 139.806 109.424C135.363 102.056 133.141 93.6944 133.141 84.3388V0.313602H156.997V83.1109C156.997 88.4904 158.167 93.3436 160.506 97.6706C162.962 101.998 166.295 105.389 170.505 107.845C174.715 110.184 179.509 111.353 184.889 111.353C190.385 111.353 195.18 110.184 199.273 107.845C203.483 105.389 206.758 101.998 209.097 97.6706C211.552 93.3436 212.78 88.4904 212.78 83.1109V0.313602H236.637V84.3388C236.637 93.6944 234.415 102.056 229.971 109.424C225.527 116.791 219.388 122.58 211.552 126.79C203.834 131 194.946 133.105 184.889 133.105ZM265.717 131V0.313602H320.798C329.452 0.313602 336.82 1.83389 342.901 4.87447C349.099 7.79811 353.835 12.0081 357.11 17.5046C360.501 22.8841 362.197 29.433 362.197 37.1514C362.197 43.1156 360.559 48.729 357.285 53.9915C354.127 59.1371 349.04 63.4056 342.024 66.797V55.7457C348.456 58.2015 353.543 61.2421 357.285 64.8674C361.027 68.4927 363.659 72.5273 365.179 76.9713C366.699 81.4152 367.459 86.093 367.459 91.0047C367.459 103.518 363.308 113.341 355.005 120.475C346.818 127.492 335.416 131 320.798 131H265.717ZM289.574 109.95H323.254C329.452 109.95 334.364 108.254 337.989 104.863C341.731 101.354 343.602 96.735 343.602 91.0047C343.602 85.2744 341.731 80.655 337.989 77.1467C334.364 73.6383 329.452 71.8841 323.254 71.8841H289.574V109.95ZM289.574 51.0094H322.026C326.938 51.0094 330.855 49.6061 333.779 46.7994C336.703 43.8757 338.164 40.1335 338.164 35.5726C338.164 31.0118 336.703 27.3865 333.779 24.6967C330.855 22.007 326.938 20.6621 322.026 20.6621H289.574V51.0094Z"/>
</mask>
<path d="M0.630095 131H-0.293158V131.923H0.630095V131ZM0.630095 0.313602V-0.60965H-0.293158V0.313602H0.630095ZM24.4869 0.313602H25.4102V-0.60965H24.4869V0.313602ZM24.4869 57.3244H23.5637V58.2477H24.4869V57.3244ZM80.0944 57.3244V58.2477H81.0177V57.3244H80.0944ZM80.0944 0.313602V-0.60965H79.1712V0.313602H80.0944ZM104.127 0.313602H105.05V-0.60965H104.127V0.313602ZM104.127 131V131.923H105.05V131H104.127ZM80.0944 131H79.1712V131.923H80.0944V131ZM80.0944 78.3746H81.0177V77.4514H80.0944V78.3746ZM24.4869 78.3746V77.4514H23.5637V78.3746H24.4869ZM24.4869 131V131.923H25.4102V131H24.4869ZM1.55335 131V0.313602H-0.293158V131H1.55335ZM0.630095 1.23685H24.4869V-0.60965H0.630095V1.23685ZM23.5637 0.313602V57.3244H25.4102V0.313602H23.5637ZM24.4869 58.2477H80.0944V56.4012H24.4869V58.2477ZM81.0177 57.3244V0.313602H79.1712V57.3244H81.0177ZM80.0944 1.23685H104.127V-0.60965H80.0944V1.23685ZM103.203 0.313602V131H105.05V0.313602H103.203ZM104.127 130.077H80.0944V131.923H104.127V130.077ZM81.0177 131V78.3746H79.1712V131H81.0177ZM80.0944 77.4514H24.4869V79.2979H80.0944V77.4514ZM23.5637 78.3746V131H25.4102V78.3746H23.5637ZM24.4869 130.077H0.630095V131.923H24.4869V130.077ZM158.05 126.79L157.608 127.601L157.613 127.603L158.05 126.79ZM139.806 109.424L140.597 108.947L139.806 109.424ZM133.141 0.313602V-0.60965H132.217V0.313602H133.141ZM156.997 0.313602H157.921V-0.60965H156.997V0.313602ZM160.506 97.6706L159.694 98.1096L159.698 98.118L159.703 98.1263L160.506 97.6706ZM170.505 107.845L170.039 108.642L170.048 108.647L170.056 108.652L170.505 107.845ZM199.273 107.845L199.731 108.646L199.738 108.642L199.273 107.845ZM209.097 97.6706L208.294 97.2149L208.289 97.2232L208.284 97.2316L209.097 97.6706ZM212.78 0.313602V-0.60965H211.857V0.313602H212.78ZM236.637 0.313602H237.56V-0.60965H236.637V0.313602ZM229.971 109.424L230.762 109.9L229.971 109.424ZM211.552 126.79L211.115 125.977L211.11 125.979L211.552 126.79ZM184.889 132.182C174.964 132.182 166.171 130.106 158.487 125.977L157.613 127.603C165.599 131.894 174.699 134.028 184.889 134.028V132.182ZM158.492 125.979C150.914 121.846 144.954 116.171 140.597 108.947L139.016 109.9C143.546 117.411 149.749 123.314 157.608 127.6L158.492 125.979ZM140.597 108.947C136.247 101.736 134.064 93.5416 134.064 84.3388H132.217C132.217 93.8473 134.478 102.376 139.016 109.9L140.597 108.947ZM134.064 84.3388V0.313602H132.217V84.3388H134.064ZM133.141 1.23685H156.997V-0.60965H133.141V1.23685ZM156.074 0.313602V83.1109H157.921V0.313602H156.074ZM156.074 83.1109C156.074 88.629 157.275 93.6354 159.694 98.1096L161.318 97.2316C159.059 93.0518 157.921 88.3518 157.921 83.1109H156.074ZM159.703 98.1263C162.237 102.592 165.686 106.103 170.039 108.642L170.97 107.047C166.904 104.675 163.686 101.403 161.309 97.2149L159.703 98.1263ZM170.056 108.652C174.419 111.076 179.371 112.276 184.889 112.276V110.43C179.648 110.43 175.01 109.292 170.953 107.038L170.056 108.652ZM184.889 112.276C190.519 112.276 195.477 111.077 199.731 108.646L198.815 107.043C194.883 109.29 190.252 110.43 184.889 110.43V112.276ZM199.738 108.642C204.096 106.1 207.49 102.584 209.909 98.1096L208.284 97.2316C206.025 101.411 202.87 104.678 198.808 107.047L199.738 108.642ZM209.899 98.1263C212.441 93.6492 213.704 88.6368 213.704 83.1109H211.857C211.857 88.344 210.664 93.038 208.294 97.2149L209.899 98.1263ZM213.704 83.1109V0.313602H211.857V83.1109H213.704ZM212.78 1.23685H236.637V-0.60965H212.78V1.23685ZM235.714 0.313602V84.3388H237.56V0.313602H235.714ZM235.714 84.3388C235.714 93.5416 233.53 101.736 229.181 108.947L230.762 109.9C235.3 102.376 237.56 93.8473 237.56 84.3388H235.714ZM229.181 108.947C224.825 116.168 218.81 121.842 211.115 125.977L211.989 127.603C219.965 123.318 226.229 117.415 230.762 109.9L229.181 108.947ZM211.11 125.979C203.546 130.105 194.814 132.182 184.889 132.182V134.028C195.078 134.028 204.122 131.895 211.994 127.6L211.11 125.979ZM265.717 131H264.794V131.923H265.717V131ZM265.717 0.313602V-0.60965H264.794V0.313602H265.717ZM342.901 4.87447L342.488 5.70026L342.497 5.70498L342.507 5.70949L342.901 4.87447ZM357.11 17.5046L356.316 17.9771L356.322 17.9871L356.329 17.9969L357.11 17.5046ZM357.285 53.9915L356.501 53.5037L356.498 53.5086L357.285 53.9915ZM342.024 66.797H341.1V68.2687L342.425 67.6283L342.024 66.797ZM342.024 55.7457L342.353 54.8832L341.1 54.4049V55.7457H342.024ZM357.285 64.8674L356.643 65.5305L357.285 64.8674ZM365.179 76.9713L366.052 76.6724L365.179 76.9713ZM355.005 120.475L355.605 121.176L355.606 121.175L355.005 120.475ZM289.574 109.95H288.65V110.873H289.574V109.95ZM337.989 104.863L338.62 105.537L338.62 105.536L337.989 104.863ZM337.989 77.1467L337.347 77.8101L337.352 77.8152L337.358 77.8202L337.989 77.1467ZM289.574 71.8841V70.9609H288.65V71.8841H289.574ZM289.574 51.0094H288.65V51.9327H289.574V51.0094ZM333.779 46.7994L334.418 47.4654L334.425 47.4589L334.432 47.4522L333.779 46.7994ZM333.779 24.6967L333.154 25.3762L333.779 24.6967ZM289.574 20.6621V19.7388H288.65V20.6621H289.574ZM266.64 131V0.313602H264.794V131H266.64ZM265.717 1.23685H320.798V-0.60965H265.717V1.23685ZM320.798 1.23685C329.347 1.23685 336.565 2.73883 342.488 5.70026L343.314 4.04869C337.074 0.928947 329.557 -0.60965 320.798 -0.60965V1.23685ZM342.507 5.70949C348.551 8.56059 353.143 12.6499 356.316 17.9771L357.903 17.032C354.527 11.3663 349.646 7.03563 343.295 4.03946L342.507 5.70949ZM356.329 17.9969C359.609 23.2003 361.273 29.5698 361.273 37.1514H363.12C363.12 29.2962 361.393 22.5679 357.891 17.0122L356.329 17.9969ZM361.273 37.1514C361.273 42.9362 359.688 48.3816 356.501 53.5038L358.069 54.4793C361.431 49.0764 363.12 43.295 363.12 37.1514H361.273ZM356.498 53.5086C353.456 58.4656 348.525 62.6292 341.622 65.9658L342.425 67.6283C349.555 64.1821 354.799 59.8086 358.072 54.4744L356.498 53.5086ZM342.947 66.797V55.7457H341.1V66.797H342.947ZM341.694 56.6082C348.045 59.0331 353.014 62.0153 356.643 65.5305L357.927 64.2043C354.071 60.4689 348.866 57.37 342.353 54.8832L341.694 56.6082ZM356.643 65.5305C360.292 69.0656 362.837 72.9787 364.305 77.2701L366.052 76.6724C364.48 72.076 361.763 67.9198 357.927 64.2043L356.643 65.5305ZM364.305 77.2701C365.791 81.6135 366.536 86.19 366.536 91.0047H368.382C368.382 85.996 367.607 81.2169 366.052 76.6724L364.305 77.2701ZM366.536 91.0047C366.536 103.292 362.471 112.843 354.403 119.775L355.606 121.175C364.144 113.84 368.382 103.744 368.382 91.0047H366.536ZM354.404 119.774C346.436 126.603 335.275 130.077 320.798 130.077V131.923C335.558 131.923 347.201 128.38 355.605 121.176L354.404 119.774ZM320.798 130.077H265.717V131.923H320.798V130.077ZM289.574 110.873H323.254V109.027H289.574V110.873ZM323.254 110.873C329.625 110.873 334.784 109.126 338.62 105.537L337.358 104.188C333.944 107.383 329.279 109.027 323.254 109.027V110.873ZM338.62 105.536C342.572 101.832 344.526 96.9572 344.526 91.0047H342.679C342.679 96.5128 340.891 100.877 337.358 104.189L338.62 105.536ZM344.526 91.0047C344.526 85.0522 342.572 80.1774 338.62 76.4731L337.358 77.8202C340.891 81.1327 342.679 85.4966 342.679 91.0047H344.526ZM338.631 76.4832C334.796 72.7719 329.634 70.9609 323.254 70.9609V72.8074C329.27 72.8074 333.931 74.5047 337.347 77.8101L338.631 76.4832ZM323.254 70.9609H289.574V72.8074H323.254V70.9609ZM288.65 71.8841V109.95H290.497V71.8841H288.65ZM289.574 51.9327H322.026V50.0862H289.574V51.9327ZM322.026 51.9327C327.122 51.9327 331.288 50.4708 334.418 47.4654L333.14 46.1333C330.423 48.7413 326.753 50.0862 322.026 50.0862V51.9327ZM334.432 47.4522C337.547 44.3368 339.088 40.3506 339.088 35.5726H337.241C337.241 39.9163 335.858 43.4147 333.126 46.1465L334.432 47.4522ZM339.088 35.5726C339.088 30.7956 337.547 26.9084 334.404 24.0173L333.154 25.3762C335.859 27.8645 337.241 31.2279 337.241 35.5726H339.088ZM334.404 24.0173C331.272 21.1358 327.112 19.7388 322.026 19.7388V21.5854C326.763 21.5854 330.439 22.8781 333.154 25.3762L334.404 24.0173ZM322.026 19.7388H289.574V21.5854H322.026V19.7388ZM288.65 20.6621V51.0094H290.497V20.6621H288.65Z" fill="#8C6C78" fill-opacity="0.5" mask="url(#path-1-outside-1_1_1791)"/>
</svg>
