<svg width="1920" height="1024" viewBox="0 0 1920 1024" fill="none" xmlns="http://www.w3.org/2000/svg">
<g opacity="0.4">
<circle cx="983.058" cy="310.058" r="431" transform="rotate(-6.05489 983.058 310.058)" fill="url(#paint0_linear_1_1607)" fill-opacity="0.08"/>
<g style="mix-blend-mode:screen">
<g clip-path="url(#clip0_1_1607)">
<rect x="550.086" y="-98.6704" width="865.949" height="817.456" rx="408.728" fill="white"/>
<g style="mix-blend-mode:darken">
<rect width="4698.76" height="4688.86" transform="translate(-1230.3 -1914.85)" fill="white"/>
<g opacity="0.6">
<g opacity="0.7" filter="url(#filter0_f_1_1607)">
<g clip-path="url(#clip1_1_1607)">
<circle cx="433.191" cy="433.191" r="433.191" transform="matrix(1 0 0 -1 97.8906 880.157)" fill="black"/>
</g>
</g>
<g opacity="0.7" filter="url(#filter1_f_1_1607)">
<g clip-path="url(#clip2_1_1607)">
<circle cx="1345.55" cy="266.064" r="433.191" transform="rotate(96.02 1345.55 266.064)" fill="black"/>
</g>
</g>
<g opacity="0.7" filter="url(#filter2_f_1_1607)">
<g clip-path="url(#clip3_1_1607)">
<circle cx="670.885" cy="23.2314" r="390.835" transform="rotate(75 670.885 23.2314)" fill="black"/>
</g>
</g>
<g opacity="0.7" filter="url(#filter3_f_1_1607)">
<g clip-path="url(#clip4_1_1607)">
<circle cx="391.107" cy="391.107" r="391.107" transform="matrix(0.258819 -0.965926 -0.965926 -0.258819 1502.18 658.125)" fill="black"/>
</g>
</g>
<g opacity="0.7" filter="url(#filter4_f_1_1607)">
<g clip-path="url(#clip5_1_1607)">
<circle cx="356.884" cy="356.884" r="356.884" transform="matrix(0.258819 -0.965926 -0.965926 -0.258819 1525.3 1204.09)" fill="black"/>
</g>
</g>
<g opacity="0.7" filter="url(#filter5_f_1_1607)">
<g clip-path="url(#clip6_1_1607)">
<circle cx="380.602" cy="380.602" r="380.602" transform="matrix(0.624983 0.780639 0.780639 -0.624983 502.613 137.403)" fill="black"/>
</g>
</g>
<g opacity="0.7" filter="url(#filter6_f_1_1607)">
<g clip-path="url(#clip7_1_1607)">
<ellipse cx="835.98" cy="181.854" rx="310.14" ry="315.162" fill="#FF6B00"/>
</g>
</g>
<g opacity="0.7" filter="url(#filter7_f_1_1607)">
<g clip-path="url(#clip8_1_1607)">
<ellipse cx="1262.44" cy="547.508" rx="219.822" ry="223.339" transform="rotate(122.596 1262.44 547.508)" fill="#F00404"/>
</g>
</g>
<g opacity="0.7" filter="url(#filter8_f_1_1607)">
<g clip-path="url(#clip9_1_1607)">
<ellipse cx="219.822" cy="223.339" rx="219.822" ry="223.339" transform="matrix(0.772627 -0.634861 -0.634861 -0.772627 880.953 665.096)" fill="#3F73FB"/>
</g>
</g>
</g>
<g style="mix-blend-mode:color-dodge">
<rect x="-402.457" y="-1075.46" width="2771.04" height="2771.04" fill="#6C6060"/>
</g>
<g style="mix-blend-mode:color-burn" opacity="0.25">
<rect x="-402.457" y="-1075.46" width="2771.04" height="2771.04" fill="black"/>
</g>
<g style="mix-blend-mode:screen">
<rect width="2771.04" height="2771.04" transform="matrix(-1 0 0 1 2368.58 -1075.46)" fill="url(#paint1_linear_1_1607)"/>
</g>
<g style="mix-blend-mode:color-burn">
<rect width="4405.95" height="4405.95" transform="translate(-1230.3 -1903.31)" fill="url(#paint2_radial_1_1607)"/>
</g>
<g style="mix-blend-mode:color-burn">
<rect width="4437.42" height="4437.42" transform="matrix(-0.761085 -0.648652 -0.648652 0.761085 4251.82 180.12)" fill="url(#paint3_radial_1_1607)"/>
</g>
<g style="mix-blend-mode:hard-light">
<rect x="-402.457" y="-1075.46" width="2771.04" height="2771.04" fill="#003BD3" fill-opacity="0.47"/>
</g>
<g style="mix-blend-mode:color-dodge">
<rect x="-402.457" y="-1075.46" width="2771.04" height="2771.04" fill="#8490AD" fill-opacity="0.6"/>
</g>
</g>
<g opacity="0.7">
<g filter="url(#filter9_f_1_1607)">
<ellipse cx="373.317" cy="379.29" rx="373.317" ry="379.29" transform="matrix(0.149837 0.988711 0.988711 -0.149837 1352.67 433.852)" fill="#94E9EE"/>
</g>
</g>
<g opacity="0.7">
<g filter="url(#filter10_f_1_1607)">
<ellipse cx="339.062" cy="330.911" rx="339.062" ry="330.911" transform="matrix(0.149837 0.988711 0.988711 -0.149837 -205.023 -859.015)" fill="#6E58F4"/>
</g>
</g>
<g opacity="0.8">
<g filter="url(#filter11_f_1_1607)">
<circle cx="103.292" cy="1167.81" r="537.41" transform="rotate(41.8513 103.292 1167.81)" fill="#5883F4"/>
</g>
</g>
</g>
</g>
</g>
<g filter="url(#filter12_f_1_1607)">
<ellipse cx="1085.61" cy="459.606" rx="483.674" ry="170.124" transform="rotate(-23.3755 1085.61 459.606)" fill="url(#paint4_linear_1_1607)" fill-opacity="0.21"/>
</g>
<g filter="url(#filter13_f_1_1607)">
<path d="M869.495 594.23C608.232 721.535 149.238 640 -47.6017 583.319C-246.71 865.84 473.514 808.712 858.514 744.832C1061.68 608.951 950.487 587.814 869.495 594.23Z" fill="#B0D9F9"/>
</g>
<g filter="url(#filter14_i_1_1607)">
<path d="M852.5 439.162C514.5 680.362 145.333 559.662 3 469.162V1035.16H1920V1.50387C1425 -33.4954 1275 137.662 852.5 439.162Z" fill="url(#paint5_linear_1_1607)"/>
</g>
<path d="M5 1033.16V472.787C149.905 563.3 517.16 680.921 853.662 440.79C909.621 400.858 960.778 363.229 1008.57 328.073C1141.35 230.407 1248.19 151.825 1359.96 95.9347C1511.39 20.2105 1671.84 -13.8093 1918 3.36831V1033.16H5Z" stroke="url(#paint6_linear_1_1607)" stroke-opacity="0.49" stroke-width="4"/>
<g filter="url(#filter15_f_1_1607)">
<ellipse cx="1069.34" cy="311.638" rx="1069.34" ry="311.638" transform="matrix(-0.897245 0.441532 0.441532 0.897245 2133.93 245)" fill="url(#paint7_linear_1_1607)" fill-opacity="0.42"/>
</g>
<defs>
<filter id="filter0_f_1_1607" x="-249.359" y="-662.103" width="1889.51" height="1889.51" filterUnits="userSpaceOnUse" color-interpolation-filters="sRGB">
<feFlood flood-opacity="0" result="BackgroundImageFix"/>
<feBlend mode="normal" in="SourceGraphic" in2="BackgroundImageFix" result="shape"/>
<feGaussianBlur stdDeviation="173.625" result="effect1_foregroundBlur_1_1607"/>
</filter>
<filter id="filter1_f_1_1607" x="160.785" y="-591.884" width="2008.25" height="2008.25" filterUnits="userSpaceOnUse" color-interpolation-filters="sRGB">
<feFlood flood-opacity="0" result="BackgroundImageFix"/>
<feBlend mode="normal" in="SourceGraphic" in2="BackgroundImageFix" result="shape"/>
<feGaussianBlur stdDeviation="173.625" result="effect1_foregroundBlur_1_1607"/>
</filter>
<filter id="filter2_f_1_1607" x="-441.43" y="-802.691" width="2014.98" height="2014.98" filterUnits="userSpaceOnUse" color-interpolation-filters="sRGB">
<feFlood flood-opacity="0" result="BackgroundImageFix"/>
<feBlend mode="normal" in="SourceGraphic" in2="BackgroundImageFix" result="shape"/>
<feGaussianBlur stdDeviation="173.625" result="effect1_foregroundBlur_1_1607"/>
</filter>
<filter id="filter3_f_1_1607" x="112.778" y="-1010.52" width="2015.89" height="2015.9" filterUnits="userSpaceOnUse" color-interpolation-filters="sRGB">
<feFlood flood-opacity="0" result="BackgroundImageFix"/>
<feBlend mode="normal" in="SourceGraphic" in2="BackgroundImageFix" result="shape"/>
<feGaussianBlur stdDeviation="173.625" result="effect1_foregroundBlur_1_1607"/>
</filter>
<filter id="filter4_f_1_1607" x="227.085" y="-348.934" width="1900.27" height="1900.27" filterUnits="userSpaceOnUse" color-interpolation-filters="sRGB">
<feFlood flood-opacity="0" result="BackgroundImageFix"/>
<feBlend mode="normal" in="SourceGraphic" in2="BackgroundImageFix" result="shape"/>
<feGaussianBlur stdDeviation="173.625" result="effect1_foregroundBlur_1_1607"/>
</filter>
<filter id="filter5_f_1_1607" x="155.363" y="-866.039" width="2170.31" height="2170.31" filterUnits="userSpaceOnUse" color-interpolation-filters="sRGB">
<feFlood flood-opacity="0" result="BackgroundImageFix"/>
<feBlend mode="normal" in="SourceGraphic" in2="BackgroundImageFix" result="shape"/>
<feGaussianBlur stdDeviation="173.625" result="effect1_foregroundBlur_1_1607"/>
</filter>
<filter id="filter6_f_1_1607" x="404.607" y="-254.541" width="1098.02" height="1111.88" filterUnits="userSpaceOnUse" color-interpolation-filters="sRGB">
<feFlood flood-opacity="0" result="BackgroundImageFix"/>
<feBlend mode="normal" in="SourceGraphic" in2="BackgroundImageFix" result="shape"/>
<feGaussianBlur stdDeviation="60.6164" result="effect1_foregroundBlur_1_1607"/>
</filter>
<filter id="filter7_f_1_1607" x="602.045" y="29.49" width="1088.21" height="1085.26" filterUnits="userSpaceOnUse" color-interpolation-filters="sRGB">
<feFlood flood-opacity="0" result="BackgroundImageFix"/>
<feBlend mode="normal" in="SourceGraphic" in2="BackgroundImageFix" result="shape"/>
<feGaussianBlur stdDeviation="60.6164" result="effect1_foregroundBlur_1_1607"/>
</filter>
<filter id="filter8_f_1_1607" x="368.578" y="-317.141" width="1102.13" height="1103.47" filterUnits="userSpaceOnUse" color-interpolation-filters="sRGB">
<feFlood flood-opacity="0" result="BackgroundImageFix"/>
<feBlend mode="normal" in="SourceGraphic" in2="BackgroundImageFix" result="shape"/>
<feGaussianBlur stdDeviation="60.6164" result="effect1_foregroundBlur_1_1607"/>
</filter>
<filter id="filter9_f_1_1607" x="1168.87" y="137.08" width="1229.49" height="1218.09" filterUnits="userSpaceOnUse" color-interpolation-filters="sRGB">
<feFlood flood-opacity="0" result="BackgroundImageFix"/>
<feBlend mode="normal" in="SourceGraphic" in2="BackgroundImageFix" result="shape"/>
<feGaussianBlur stdDeviation="117.769" result="effect1_foregroundBlur_1_1607"/>
</filter>
<filter id="filter10_f_1_1607" x="-425.913" y="-1180.01" width="1197.74" height="1213.3" filterUnits="userSpaceOnUse" color-interpolation-filters="sRGB">
<feFlood flood-opacity="0" result="BackgroundImageFix"/>
<feBlend mode="normal" in="SourceGraphic" in2="BackgroundImageFix" result="shape"/>
<feGaussianBlur stdDeviation="133.863" result="effect1_foregroundBlur_1_1607"/>
</filter>
<filter id="filter11_f_1_1607" x="-1694.26" y="-629.738" width="3595.1" height="3595.1" filterUnits="userSpaceOnUse" color-interpolation-filters="sRGB">
<feFlood flood-opacity="0" result="BackgroundImageFix"/>
<feBlend mode="normal" in="SourceGraphic" in2="BackgroundImageFix" result="shape"/>
<feGaussianBlur stdDeviation="630.067" result="effect1_foregroundBlur_1_1607"/>
</filter>
<filter id="filter12_f_1_1607" x="414.47" y="-9.81226" width="1342.28" height="938.836" filterUnits="userSpaceOnUse" color-interpolation-filters="sRGB">
<feFlood flood-opacity="0" result="BackgroundImageFix"/>
<feBlend mode="normal" in="SourceGraphic" in2="BackgroundImageFix" result="shape"/>
<feGaussianBlur stdDeviation="111" result="effect1_foregroundBlur_1_1607"/>
</filter>
<filter id="filter13_f_1_1607" x="-282.745" y="382.319" width="1457.42" height="615.767" filterUnits="userSpaceOnUse" color-interpolation-filters="sRGB">
<feFlood flood-opacity="0" result="BackgroundImageFix"/>
<feBlend mode="normal" in="SourceGraphic" in2="BackgroundImageFix" result="shape"/>
<feGaussianBlur stdDeviation="100.5" result="effect1_foregroundBlur_1_1607"/>
</filter>
<filter id="filter14_i_1_1607" x="3" y="-3" width="1917" height="1071.16" filterUnits="userSpaceOnUse" color-interpolation-filters="sRGB">
<feFlood flood-opacity="0" result="BackgroundImageFix"/>
<feBlend mode="normal" in="SourceGraphic" in2="BackgroundImageFix" result="shape"/>
<feColorMatrix in="SourceAlpha" type="matrix" values="0 0 0 0 0 0 0 0 0 0 0 0 0 0 0 0 0 0 127 0" result="hardAlpha"/>
<feOffset dy="33"/>
<feGaussianBlur stdDeviation="42"/>
<feComposite in2="hardAlpha" operator="arithmetic" k2="-1" k3="1"/>
<feColorMatrix type="matrix" values="0 0 0 0 0.829167 0 0 0 0 0.829167 0 0 0 0 0.829167 0 0 0 0.37 0"/>
<feBlend mode="normal" in2="shape" result="effect1_innerShadow_1_1607"/>
</filter>
<filter id="filter15_f_1_1607" x="-98.3394" y="6.94482" width="2820.81" height="1979.64" filterUnits="userSpaceOnUse" color-interpolation-filters="sRGB">
<feFlood flood-opacity="0" result="BackgroundImageFix"/>
<feBlend mode="normal" in="SourceGraphic" in2="BackgroundImageFix" result="shape"/>
<feGaussianBlur stdDeviation="220.5" result="effect1_foregroundBlur_1_1607"/>
</filter>
<linearGradient id="paint0_linear_1_1607" x1="1047.07" y1="1534.78" x2="1872.61" y2="312.611" gradientUnits="userSpaceOnUse">
<stop stop-color="#04346D"/>
<stop offset="0.955" stop-color="#195BDB"/>
</linearGradient>
<linearGradient id="paint1_linear_1_1607" x1="1385.52" y1="831.311" x2="1385.52" y2="1922.41" gradientUnits="userSpaceOnUse">
<stop stop-color="#40C5CD"/>
<stop offset="1" stop-color="#2171E4"/>
</linearGradient>
<radialGradient id="paint2_radial_1_1607" cx="0" cy="0" r="1" gradientUnits="userSpaceOnUse" gradientTransform="translate(1018.79 820.327) rotate(50.4164) scale(1858.4)">
<stop stop-color="#090909"/>
<stop offset="1" stop-color="white"/>
</radialGradient>
<radialGradient id="paint3_radial_1_1607" cx="0" cy="0" r="1" gradientUnits="userSpaceOnUse" gradientTransform="translate(1026.07 826.186) rotate(50.4164) scale(1871.68)">
<stop stop-color="#090909"/>
<stop offset="1" stop-opacity="0"/>
</radialGradient>
<linearGradient id="paint4_linear_1_1607" x1="1157.44" y1="943.026" x2="1315.43" y2="278.044" gradientUnits="userSpaceOnUse">
<stop stop-color="#042E6D"/>
<stop offset="0.955" stop-color="#19A1DB"/>
</linearGradient>
<linearGradient id="paint5_linear_1_1607" x1="981.5" y1="353.504" x2="961.5" y2="1035.16" gradientUnits="userSpaceOnUse">
<stop stop-color="white"/>
<stop offset="1" stop-color="#F1F1F1"/>
</linearGradient>
<linearGradient id="paint6_linear_1_1607" x1="64" y1="664.504" x2="2797.36" y2="-280.856" gradientUnits="userSpaceOnUse">
<stop stop-color="white"/>
<stop offset="1" stop-color="white" stop-opacity="0.04"/>
</linearGradient>
<linearGradient id="paint7_linear_1_1607" x1="173.615" y1="588.932" x2="2761.31" y2="-719.31" gradientUnits="userSpaceOnUse">
<stop stop-color="white"/>
<stop offset="1" stop-color="#D2E2FF"/>
</linearGradient>
<clipPath id="clip0_1_1607">
<rect x="550.086" y="-98.6704" width="865.949" height="817.456" rx="408.728" fill="white"/>
</clipPath>
<clipPath id="clip1_1_1607">
<rect width="1195.01" height="1195.01" fill="white" transform="matrix(1 0 0 -1 97.8906 880.157)"/>
</clipPath>
<clipPath id="clip2_1_1607">
<rect width="1195.01" height="1195.01" fill="white" transform="translate(1821.78 -119.308) rotate(96.02)"/>
</clipPath>
<clipPath id="clip3_1_1607">
<rect width="1078.16" height="1078.16" fill="white" transform="translate(947.246 -455.441) rotate(75)"/>
</clipPath>
<clipPath id="clip4_1_1607">
<rect width="1078.91" height="1078.91" fill="white" transform="matrix(0.258819 -0.965926 -0.965926 -0.258819 1502.18 658.125)"/>
</clipPath>
<clipPath id="clip5_1_1607">
<rect width="984.508" height="984.508" fill="white" transform="matrix(0.258819 -0.965926 -0.965926 -0.258819 1525.3 1204.09)"/>
</clipPath>
<clipPath id="clip6_1_1607">
<rect width="1049.94" height="1049.94" fill="white" transform="matrix(0.624983 0.780639 0.780639 -0.624983 502.613 137.403)"/>
</clipPath>
<clipPath id="clip7_1_1607">
<rect width="855.558" height="869.413" fill="white" transform="translate(525.84 -133.309)"/>
</clipPath>
<clipPath id="clip8_1_1607">
<rect width="606.405" height="616.108" fill="white" transform="translate(1569.02 482.624) rotate(122.596)"/>
</clipPath>
<clipPath id="clip9_1_1607">
<rect width="606.405" height="616.108" fill="white" transform="matrix(0.772627 -0.634861 -0.634861 -0.772627 880.953 665.096)"/>
</clipPath>
</defs>
</svg>
