<svg width="46" height="76" viewBox="0 0 46 76" fill="none" xmlns="http://www.w3.org/2000/svg">
<rect x="0.310811" y="0.310811" width="45.3784" height="75.2162" rx="22.6892" stroke="#717883" stroke-width="0.621622"/>
<path d="M21.9201 28.4971L18.7233 31.6938C18.5689 31.8368 18.3651 31.9146 18.1546 31.9109C17.9433 31.9071 17.7416 31.8215 17.5921 31.672C17.4426 31.5225 17.357 31.3209 17.3533 31.1095C17.3496 30.899 17.4274 30.6953 17.5703 30.5408L22.4247 25.6865C22.5777 25.5337 22.785 25.4479 23.0012 25.4479C23.2174 25.4479 23.4248 25.5337 23.5778 25.6865L28.4321 30.5408C28.5751 30.6953 28.6529 30.899 28.6492 31.1095C28.6454 31.3209 28.5598 31.5225 28.4103 31.672C28.2608 31.8215 28.0592 31.9071 27.8478 31.9109C27.6373 31.9146 27.4336 31.8368 27.2791 31.6938L24.0824 28.4971L23.8171 28.2318V28.6069V49.5737C23.8171 49.7901 23.7311 49.9976 23.5781 50.1506C23.4251 50.3036 23.2176 50.3896 23.0012 50.3896C22.7848 50.3896 22.5773 50.3036 22.4243 50.1506C22.2713 49.9976 22.1854 49.7901 22.1854 49.5737V28.6069V28.2318L21.9201 28.4971Z" fill="#2171E4" stroke="#191F26" stroke-width="0.310811"/>
</svg>
