<svg width="1180" height="542" viewBox="0 0 1180 542" fill="none" xmlns="http://www.w3.org/2000/svg">
<line y1="0.5" x2="1179" y2="0.5" stroke="#2171E4"/>
<path d="M1179 0V104.5" stroke="#2171E4"/>
<path d="M855.205 490.252C854.211 490.252 853.308 490.063 852.496 489.685C851.684 489.307 850.998 488.803 850.438 488.173C849.878 487.529 849.479 486.822 849.241 486.052L850.753 485.485C851.117 486.549 851.684 487.361 852.454 487.921C853.224 488.467 854.141 488.74 855.205 488.74C855.877 488.74 856.465 488.635 856.969 488.425C857.487 488.201 857.886 487.893 858.166 487.501C858.446 487.109 858.586 486.654 858.586 486.136C858.586 485.366 858.376 484.771 857.956 484.351C857.536 483.931 856.934 483.609 856.15 483.385L853.336 482.545C852.23 482.223 851.376 481.684 850.774 480.928C850.186 480.172 849.892 479.311 849.892 478.345C849.892 477.519 850.095 476.791 850.501 476.161C850.907 475.517 851.46 475.013 852.16 474.649C852.874 474.285 853.679 474.103 854.575 474.103C855.513 474.103 856.353 474.278 857.095 474.628C857.851 474.964 858.488 475.412 859.006 475.972C859.524 476.532 859.895 477.155 860.119 477.841L858.649 478.429C858.313 477.505 857.788 476.805 857.074 476.329C856.374 475.853 855.548 475.615 854.596 475.615C853.994 475.615 853.462 475.72 853 475.93C852.552 476.14 852.202 476.441 851.95 476.833C851.698 477.225 851.572 477.687 851.572 478.219C851.572 478.863 851.775 479.444 852.181 479.962C852.587 480.466 853.21 480.844 854.05 481.096L856.528 481.831C857.76 482.195 858.691 482.72 859.321 483.406C859.951 484.092 860.266 484.953 860.266 485.989C860.266 486.829 860.049 487.571 859.615 488.215C859.195 488.845 858.6 489.342 857.83 489.706C857.074 490.07 856.199 490.252 855.205 490.252ZM868.823 490.252C867.773 490.252 866.821 490 865.967 489.496C865.127 488.978 864.462 488.271 863.972 487.375C863.482 486.479 863.237 485.464 863.237 484.33C863.237 483.196 863.475 482.195 863.951 481.327C864.427 480.445 865.071 479.752 865.883 479.248C866.709 478.744 867.633 478.492 868.655 478.492C869.467 478.492 870.188 478.646 870.818 478.954C871.462 479.248 872.008 479.654 872.456 480.172C872.904 480.676 873.247 481.25 873.485 481.894C873.723 482.524 873.842 483.175 873.842 483.847C873.842 483.987 873.835 484.148 873.821 484.33C873.807 484.498 873.786 484.673 873.758 484.855H864.245V483.385H872.855L872.099 484.015C872.225 483.245 872.134 482.559 871.826 481.957C871.532 481.341 871.105 480.858 870.545 480.508C869.985 480.144 869.355 479.962 868.655 479.962C867.955 479.962 867.304 480.144 866.702 480.508C866.114 480.872 865.652 481.383 865.316 482.041C864.98 482.685 864.847 483.455 864.917 484.351C864.847 485.247 864.987 486.031 865.337 486.703C865.701 487.361 866.191 487.872 866.807 488.236C867.437 488.6 868.109 488.782 868.823 488.782C869.649 488.782 870.342 488.586 870.902 488.194C871.462 487.802 871.917 487.312 872.267 486.724L873.611 487.438C873.387 487.942 873.044 488.411 872.582 488.845C872.12 489.265 871.567 489.608 870.923 489.874C870.293 490.126 869.593 490.252 868.823 490.252ZM880.089 490.252C879.375 490.252 878.738 490.119 878.178 489.853C877.618 489.573 877.177 489.195 876.855 488.719C876.533 488.243 876.372 487.697 876.372 487.081C876.372 486.493 876.498 485.961 876.75 485.485C877.002 484.995 877.394 484.582 877.926 484.246C878.458 483.91 879.137 483.672 879.963 483.532L884.373 482.797V484.225L880.341 484.897C879.529 485.037 878.941 485.296 878.577 485.674C878.227 486.052 878.052 486.5 878.052 487.018C878.052 487.522 878.248 487.949 878.64 488.299C879.046 488.649 879.564 488.824 880.194 488.824C880.964 488.824 881.636 488.663 882.21 488.341C882.784 488.005 883.232 487.557 883.554 486.997C883.876 486.437 884.037 485.814 884.037 485.128V482.272C884.037 481.6 883.792 481.054 883.302 480.634C882.812 480.214 882.175 480.004 881.391 480.004C880.705 480.004 880.103 480.179 879.585 480.529C879.067 480.865 878.682 481.306 878.43 481.852L877.002 481.075C877.212 480.599 877.541 480.165 877.989 479.773C878.451 479.381 878.976 479.073 879.564 478.849C880.152 478.611 880.761 478.492 881.391 478.492C882.217 478.492 882.945 478.653 883.575 478.975C884.219 479.297 884.716 479.745 885.066 480.319C885.43 480.879 885.612 481.53 885.612 482.272V490H884.037V487.753L884.268 487.984C884.072 488.404 883.764 488.789 883.344 489.139C882.938 489.475 882.455 489.748 881.895 489.958C881.349 490.154 880.747 490.252 880.089 490.252ZM889.271 490V478.744H890.846V480.886L890.594 480.571C890.902 479.913 891.357 479.402 891.959 479.038C892.575 478.674 893.247 478.492 893.975 478.492C894.843 478.492 895.627 478.737 896.327 479.227C897.027 479.717 897.524 480.354 897.818 481.138L897.377 481.159C897.657 480.291 898.14 479.633 898.826 479.185C899.526 478.723 900.296 478.492 901.136 478.492C901.892 478.492 902.585 478.674 903.215 479.038C903.859 479.402 904.37 479.906 904.748 480.55C905.14 481.18 905.336 481.894 905.336 482.692V490H903.761V483.301C903.761 482.615 903.635 482.034 903.383 481.558C903.145 481.082 902.816 480.718 902.396 480.466C901.976 480.2 901.493 480.067 900.947 480.067C900.415 480.067 899.932 480.2 899.498 480.466C899.064 480.718 898.721 481.089 898.469 481.579C898.217 482.055 898.091 482.629 898.091 483.301V490H896.516V483.301C896.516 482.615 896.39 482.034 896.138 481.558C895.9 481.082 895.571 480.718 895.151 480.466C894.731 480.2 894.248 480.067 893.702 480.067C893.156 480.067 892.666 480.2 892.232 480.466C891.812 480.718 891.476 481.089 891.224 481.579C890.972 482.055 890.846 482.629 890.846 483.301V490H889.271ZM908.763 490V474.103H910.338V490H908.763ZM919.106 490.252C918.056 490.252 917.104 490 916.25 489.496C915.41 488.978 914.745 488.271 914.255 487.375C913.765 486.479 913.52 485.464 913.52 484.33C913.52 483.196 913.758 482.195 914.234 481.327C914.71 480.445 915.354 479.752 916.166 479.248C916.992 478.744 917.916 478.492 918.938 478.492C919.75 478.492 920.471 478.646 921.101 478.954C921.745 479.248 922.291 479.654 922.739 480.172C923.187 480.676 923.53 481.25 923.768 481.894C924.006 482.524 924.125 483.175 924.125 483.847C924.125 483.987 924.118 484.148 924.104 484.33C924.09 484.498 924.069 484.673 924.041 484.855H914.528V483.385H923.138L922.382 484.015C922.508 483.245 922.417 482.559 922.109 481.957C921.815 481.341 921.388 480.858 920.828 480.508C920.268 480.144 919.638 479.962 918.938 479.962C918.238 479.962 917.587 480.144 916.985 480.508C916.397 480.872 915.935 481.383 915.599 482.041C915.263 482.685 915.13 483.455 915.2 484.351C915.13 485.247 915.27 486.031 915.62 486.703C915.984 487.361 916.474 487.872 917.09 488.236C917.72 488.6 918.392 488.782 919.106 488.782C919.932 488.782 920.625 488.586 921.185 488.194C921.745 487.802 922.2 487.312 922.55 486.724L923.894 487.438C923.67 487.942 923.327 488.411 922.865 488.845C922.403 489.265 921.85 489.608 921.206 489.874C920.576 490.126 919.876 490.252 919.106 490.252ZM931.228 490.252C930.15 490.252 929.205 489.979 928.393 489.433C927.581 488.887 926.993 488.145 926.629 487.207L927.952 486.577C928.274 487.263 928.722 487.809 929.296 488.215C929.884 488.621 930.528 488.824 931.228 488.824C931.9 488.824 932.467 488.663 932.929 488.341C933.391 488.005 933.622 487.571 933.622 487.039C933.622 486.647 933.51 486.339 933.286 486.115C933.062 485.877 932.803 485.695 932.509 485.569C932.215 485.443 931.956 485.352 931.732 485.296L930.115 484.834C929.079 484.54 928.33 484.127 927.868 483.595C927.406 483.063 927.175 482.447 927.175 481.747C927.175 481.089 927.343 480.515 927.679 480.025C928.015 479.535 928.47 479.157 929.044 478.891C929.618 478.625 930.255 478.492 930.955 478.492C931.907 478.492 932.768 478.744 933.538 479.248C934.322 479.738 934.875 480.424 935.197 481.306L933.853 481.936C933.573 481.306 933.167 480.816 932.635 480.466C932.117 480.102 931.536 479.92 930.892 479.92C930.262 479.92 929.758 480.081 929.38 480.403C929.002 480.725 928.813 481.131 928.813 481.621C928.813 481.999 928.911 482.3 929.107 482.524C929.303 482.748 929.527 482.916 929.779 483.028C930.045 483.14 930.276 483.224 930.472 483.28L932.341 483.826C933.251 484.092 933.958 484.505 934.462 485.065C934.98 485.625 935.239 486.283 935.239 487.039C935.239 487.655 935.064 488.208 934.714 488.698C934.378 489.188 933.909 489.573 933.307 489.853C932.705 490.119 932.012 490.252 931.228 490.252ZM942.333 490.252C941.255 490.252 940.31 489.979 939.498 489.433C938.686 488.887 938.098 488.145 937.734 487.207L939.057 486.577C939.379 487.263 939.827 487.809 940.401 488.215C940.989 488.621 941.633 488.824 942.333 488.824C943.005 488.824 943.572 488.663 944.034 488.341C944.496 488.005 944.727 487.571 944.727 487.039C944.727 486.647 944.615 486.339 944.391 486.115C944.167 485.877 943.908 485.695 943.614 485.569C943.32 485.443 943.061 485.352 942.837 485.296L941.22 484.834C940.184 484.54 939.435 484.127 938.973 483.595C938.511 483.063 938.28 482.447 938.28 481.747C938.28 481.089 938.448 480.515 938.784 480.025C939.12 479.535 939.575 479.157 940.149 478.891C940.723 478.625 941.36 478.492 942.06 478.492C943.012 478.492 943.873 478.744 944.643 479.248C945.427 479.738 945.98 480.424 946.302 481.306L944.958 481.936C944.678 481.306 944.272 480.816 943.74 480.466C943.222 480.102 942.641 479.92 941.997 479.92C941.367 479.92 940.863 480.081 940.485 480.403C940.107 480.725 939.918 481.131 939.918 481.621C939.918 481.999 940.016 482.3 940.212 482.524C940.408 482.748 940.632 482.916 940.884 483.028C941.15 483.14 941.381 483.224 941.577 483.28L943.446 483.826C944.356 484.092 945.063 484.505 945.567 485.065C946.085 485.625 946.344 486.283 946.344 487.039C946.344 487.655 946.169 488.208 945.819 488.698C945.483 489.188 945.014 489.573 944.412 489.853C943.81 490.119 943.117 490.252 942.333 490.252ZM835.972 519.252C834.866 519.252 833.851 519.056 832.927 518.664C832.003 518.258 831.198 517.698 830.512 516.984C829.84 516.256 829.315 515.402 828.937 514.422C828.559 513.442 828.37 512.364 828.37 511.188C828.37 510.012 828.559 508.934 828.937 507.954C829.315 506.974 829.84 506.12 830.512 505.392C831.198 504.664 832.003 504.104 832.927 503.712C833.851 503.306 834.866 503.103 835.972 503.103C837.036 503.103 837.988 503.292 838.828 503.67C839.682 504.048 840.396 504.538 840.97 505.14C841.558 505.728 841.978 506.351 842.23 507.009L840.655 507.702C840.263 506.792 839.661 506.064 838.849 505.518C838.051 504.958 837.092 504.678 835.972 504.678C834.824 504.678 833.802 504.951 832.906 505.497C832.01 506.043 831.31 506.806 830.806 507.786C830.302 508.752 830.05 509.886 830.05 511.188C830.05 512.476 830.302 513.61 830.806 514.59C831.31 515.57 832.01 516.333 832.906 516.879C833.802 517.411 834.824 517.677 835.972 517.677C837.092 517.677 838.051 517.404 838.849 516.858C839.661 516.312 840.263 515.584 840.655 514.674L842.23 515.367C841.978 516.011 841.558 516.634 840.97 517.236C840.396 517.824 839.682 518.307 838.828 518.685C837.988 519.063 837.036 519.252 835.972 519.252ZM850.493 519.252C849.429 519.252 848.463 519 847.595 518.496C846.727 517.978 846.034 517.278 845.516 516.396C845.012 515.5 844.76 514.485 844.76 513.351C844.76 512.231 845.012 511.23 845.516 510.348C846.02 509.466 846.699 508.773 847.553 508.269C848.421 507.751 849.401 507.492 850.493 507.492C851.585 507.492 852.558 507.744 853.412 508.248C854.28 508.752 854.959 509.445 855.449 510.327C855.953 511.209 856.205 512.217 856.205 513.351C856.205 514.499 855.946 515.521 855.428 516.417C854.91 517.299 854.217 517.992 853.349 518.496C852.495 519 851.543 519.252 850.493 519.252ZM850.493 517.677C851.249 517.677 851.928 517.488 852.53 517.11C853.146 516.732 853.629 516.214 853.979 515.556C854.343 514.898 854.525 514.163 854.525 513.351C854.525 512.539 854.343 511.811 853.979 511.167C853.629 510.523 853.146 510.012 852.53 509.634C851.928 509.256 851.249 509.067 850.493 509.067C849.737 509.067 849.051 509.256 848.435 509.634C847.833 510.012 847.35 510.523 846.986 511.167C846.622 511.811 846.44 512.539 846.44 513.351C846.44 514.163 846.622 514.898 846.986 515.556C847.35 516.214 847.833 516.732 848.435 517.11C849.051 517.488 849.737 517.677 850.493 517.677ZM859.403 519V503.103H860.978V519H859.403ZM864.622 519V503.103H866.197V519H864.622ZM873.095 519.252C872.381 519.252 871.744 519.119 871.184 518.853C870.624 518.573 870.183 518.195 869.861 517.719C869.539 517.243 869.378 516.697 869.378 516.081C869.378 515.493 869.504 514.961 869.756 514.485C870.008 513.995 870.4 513.582 870.932 513.246C871.464 512.91 872.143 512.672 872.969 512.532L877.379 511.797V513.225L873.347 513.897C872.535 514.037 871.947 514.296 871.583 514.674C871.233 515.052 871.058 515.5 871.058 516.018C871.058 516.522 871.254 516.949 871.646 517.299C872.052 517.649 872.57 517.824 873.2 517.824C873.97 517.824 874.642 517.663 875.216 517.341C875.79 517.005 876.238 516.557 876.56 515.997C876.882 515.437 877.043 514.814 877.043 514.128V511.272C877.043 510.6 876.798 510.054 876.308 509.634C875.818 509.214 875.181 509.004 874.397 509.004C873.711 509.004 873.109 509.179 872.591 509.529C872.073 509.865 871.688 510.306 871.436 510.852L870.008 510.075C870.218 509.599 870.547 509.165 870.995 508.773C871.457 508.381 871.982 508.073 872.57 507.849C873.158 507.611 873.767 507.492 874.397 507.492C875.223 507.492 875.951 507.653 876.581 507.975C877.225 508.297 877.722 508.745 878.072 509.319C878.436 509.879 878.618 510.53 878.618 511.272V519H877.043V516.753L877.274 516.984C877.078 517.404 876.77 517.789 876.35 518.139C875.944 518.475 875.461 518.748 874.901 518.958C874.355 519.154 873.753 519.252 873.095 519.252ZM887.969 519.252C887.003 519.252 886.128 519.035 885.344 518.601C884.574 518.153 883.993 517.523 883.601 516.711L883.853 516.48V519H882.278V503.103H883.853V510.264L883.601 509.823C884.049 509.109 884.644 508.542 885.386 508.122C886.142 507.702 887.003 507.492 887.969 507.492C889.033 507.492 889.978 507.751 890.804 508.269C891.644 508.773 892.302 509.466 892.778 510.348C893.268 511.23 893.513 512.238 893.513 513.372C893.513 514.492 893.268 515.5 892.778 516.396C892.302 517.278 891.644 517.978 890.804 518.496C889.978 519 889.033 519.252 887.969 519.252ZM887.885 517.677C888.641 517.677 889.313 517.488 889.901 517.11C890.503 516.732 890.972 516.221 891.308 515.577C891.658 514.919 891.833 514.184 891.833 513.372C891.833 512.546 891.658 511.811 891.308 511.167C890.972 510.523 890.503 510.012 889.901 509.634C889.313 509.256 888.641 509.067 887.885 509.067C887.129 509.067 886.443 509.256 885.827 509.634C885.225 510.012 884.742 510.53 884.378 511.188C884.028 511.832 883.853 512.56 883.853 513.372C883.853 514.184 884.028 514.919 884.378 515.577C884.742 516.221 885.225 516.732 885.827 517.11C886.443 517.488 887.129 517.677 887.885 517.677ZM901.976 519.252C900.912 519.252 899.946 519 899.078 518.496C898.21 517.978 897.517 517.278 896.999 516.396C896.495 515.5 896.243 514.485 896.243 513.351C896.243 512.231 896.495 511.23 896.999 510.348C897.503 509.466 898.182 508.773 899.036 508.269C899.904 507.751 900.884 507.492 901.976 507.492C903.068 507.492 904.041 507.744 904.895 508.248C905.763 508.752 906.442 509.445 906.932 510.327C907.436 511.209 907.688 512.217 907.688 513.351C907.688 514.499 907.429 515.521 906.911 516.417C906.393 517.299 905.7 517.992 904.832 518.496C903.978 519 903.026 519.252 901.976 519.252ZM901.976 517.677C902.732 517.677 903.411 517.488 904.013 517.11C904.629 516.732 905.112 516.214 905.462 515.556C905.826 514.898 906.008 514.163 906.008 513.351C906.008 512.539 905.826 511.811 905.462 511.167C905.112 510.523 904.629 510.012 904.013 509.634C903.411 509.256 902.732 509.067 901.976 509.067C901.22 509.067 900.534 509.256 899.918 509.634C899.316 510.012 898.833 510.523 898.469 511.167C898.105 511.811 897.923 512.539 897.923 513.351C897.923 514.163 898.105 514.898 898.469 515.556C898.833 516.214 899.316 516.732 899.918 517.11C900.534 517.488 901.22 517.677 901.976 517.677ZM910.886 519V507.744H912.461V509.592L912.251 509.319C912.517 508.787 912.916 508.367 913.448 508.059C913.994 507.751 914.652 507.597 915.422 507.597H916.136V509.172H915.149C914.337 509.172 913.686 509.424 913.196 509.928C912.706 510.432 912.461 511.146 912.461 512.07V519H910.886ZM921.656 519.252C920.942 519.252 920.305 519.119 919.745 518.853C919.185 518.573 918.744 518.195 918.422 517.719C918.1 517.243 917.939 516.697 917.939 516.081C917.939 515.493 918.065 514.961 918.317 514.485C918.569 513.995 918.961 513.582 919.493 513.246C920.025 512.91 920.704 512.672 921.53 512.532L925.94 511.797V513.225L921.908 513.897C921.096 514.037 920.508 514.296 920.144 514.674C919.794 515.052 919.619 515.5 919.619 516.018C919.619 516.522 919.815 516.949 920.207 517.299C920.613 517.649 921.131 517.824 921.761 517.824C922.531 517.824 923.203 517.663 923.777 517.341C924.351 517.005 924.799 516.557 925.121 515.997C925.443 515.437 925.604 514.814 925.604 514.128V511.272C925.604 510.6 925.359 510.054 924.869 509.634C924.379 509.214 923.742 509.004 922.958 509.004C922.272 509.004 921.67 509.179 921.152 509.529C920.634 509.865 920.249 510.306 919.997 510.852L918.569 510.075C918.779 509.599 919.108 509.165 919.556 508.773C920.018 508.381 920.543 508.073 921.131 507.849C921.719 507.611 922.328 507.492 922.958 507.492C923.784 507.492 924.512 507.653 925.142 507.975C925.786 508.297 926.283 508.745 926.633 509.319C926.997 509.879 927.179 510.53 927.179 511.272V519H925.604V516.753L925.835 516.984C925.639 517.404 925.331 517.789 924.911 518.139C924.505 518.475 924.022 518.748 923.462 518.958C922.916 519.154 922.314 519.252 921.656 519.252ZM934.939 519.126C933.931 519.126 933.154 518.832 932.608 518.244C932.062 517.656 931.789 516.816 931.789 515.724V509.319H929.71V507.744H930.235C930.711 507.744 931.089 507.59 931.369 507.282C931.649 506.96 931.789 506.561 931.789 506.085V505.14H933.364V507.744H935.842V509.319H933.364V515.724C933.364 516.102 933.42 516.438 933.532 516.732C933.644 517.012 933.833 517.236 934.099 517.404C934.379 517.572 934.75 517.656 935.212 517.656C935.324 517.656 935.457 517.649 935.611 517.635C935.765 517.621 935.898 517.607 936.01 517.593V519C935.842 519.042 935.653 519.07 935.443 519.084C935.233 519.112 935.065 519.126 934.939 519.126ZM939.195 519V507.744H940.77V519H939.195ZM939.195 505.665V503.355H940.77V505.665H939.195ZM949.685 519.252C948.621 519.252 947.655 519 946.787 518.496C945.919 517.978 945.226 517.278 944.708 516.396C944.204 515.5 943.952 514.485 943.952 513.351C943.952 512.231 944.204 511.23 944.708 510.348C945.212 509.466 945.891 508.773 946.745 508.269C947.613 507.751 948.593 507.492 949.685 507.492C950.777 507.492 951.75 507.744 952.604 508.248C953.472 508.752 954.151 509.445 954.641 510.327C955.145 511.209 955.397 512.217 955.397 513.351C955.397 514.499 955.138 515.521 954.62 516.417C954.102 517.299 953.409 517.992 952.541 518.496C951.687 519 950.735 519.252 949.685 519.252ZM949.685 517.677C950.441 517.677 951.12 517.488 951.722 517.11C952.338 516.732 952.821 516.214 953.171 515.556C953.535 514.898 953.717 514.163 953.717 513.351C953.717 512.539 953.535 511.811 953.171 511.167C952.821 510.523 952.338 510.012 951.722 509.634C951.12 509.256 950.441 509.067 949.685 509.067C948.929 509.067 948.243 509.256 947.627 509.634C947.025 510.012 946.542 510.523 946.178 511.167C945.814 511.811 945.632 512.539 945.632 513.351C945.632 514.163 945.814 514.898 946.178 515.556C946.542 516.214 947.025 516.732 947.627 517.11C948.243 517.488 948.929 517.677 949.685 517.677ZM958.595 519V507.744H960.17V509.928L959.813 509.844C960.093 509.116 960.548 508.542 961.178 508.122C961.822 507.702 962.564 507.492 963.404 507.492C964.202 507.492 964.916 507.674 965.546 508.038C966.19 508.402 966.694 508.906 967.058 509.55C967.436 510.18 967.625 510.894 967.625 511.692V519H966.05V512.301C966.05 511.615 965.924 511.034 965.672 510.558C965.434 510.082 965.091 509.718 964.643 509.466C964.209 509.2 963.705 509.067 963.131 509.067C962.557 509.067 962.046 509.2 961.598 509.466C961.15 509.718 960.8 510.089 960.548 510.579C960.296 511.055 960.17 511.629 960.17 512.301V519H958.595Z" fill="#A6A1AC"/>
<line x1="898.5" y1="1" x2="898.5" y2="228" stroke="#2171E4"/>
<rect x="788.778" y="227.778" width="218.444" height="218.444" stroke="url(#paint0_linear_1_1744)" stroke-width="1.55574"/>
<path d="M850.724 334.79C852.8 337.437 856.474 338.139 859.372 336.479L866.885 346.053L861.921 350.071C859.439 352.079 859.055 355.712 861.064 358.196C861.748 359.041 862.633 359.611 863.588 359.957C861.69 362.029 861.521 365.229 863.34 367.478C865.106 369.659 868.166 370.238 870.593 368.915C870.72 369.985 871.133 371.004 871.827 371.862C873.838 374.346 877.484 374.718 879.953 372.719L880.557 372.23C880.631 373.383 881.046 374.485 881.788 375.401C883.746 377.823 887.297 378.194 889.712 376.237L890.659 375.47L891.747 376.856C893.99 379.717 898.122 380.208 900.974 377.97C902.196 377.012 903.022 375.683 903.342 374.183C905.434 374.985 907.87 374.695 909.755 373.215C910.871 372.34 911.657 371.156 912.029 369.815C914.236 370.929 916.987 370.747 919.055 369.123C920.593 367.915 921.448 366.154 921.556 364.341C923.488 364.682 925.34 364.191 926.799 363.046C929.65 360.81 930.149 356.669 927.921 353.828L924.548 349.463C924.224 349.456 923.906 349.391 923.599 349.296L937.747 337.561C940.124 338.65 942.763 338.277 944.702 336.776L948.971 333.467C950.397 332.363 951.308 330.768 951.535 328.979C951.761 327.19 951.278 325.419 950.174 323.994L929.366 297.14C927.086 294.198 922.837 293.659 919.894 295.939L915.623 299.247C914.197 300.352 913.287 301.946 913.06 303.735C912.833 305.525 913.317 307.295 914.421 308.72L916.004 310.763L911.706 315.337L890.956 319.228L887.316 314.589C890.015 312.109 890.186 308.174 888.073 305.483L884.735 301.228C882.435 298.295 878.193 297.78 875.259 300.085L848.527 321.059C845.601 323.357 845.088 327.608 847.385 330.535L850.724 334.79ZM863.998 352.637L871.453 346.603C872.505 345.753 874.065 345.895 874.936 346.97C875.795 348.031 875.63 349.593 874.569 350.452L867.114 356.486C866.052 357.344 864.495 357.186 863.631 356.119C862.772 355.058 862.937 353.496 863.998 352.637ZM865.907 365.401C865.048 364.34 865.213 362.778 866.274 361.919L877.052 353.195C878.104 352.345 879.664 352.487 880.535 353.562C881.396 354.626 881.232 356.183 880.168 357.045L869.39 365.768C868.327 366.625 866.765 366.461 865.907 365.401ZM877.877 370.153C876.803 371.019 875.251 370.843 874.394 369.786C873.535 368.725 873.7 367.162 874.761 366.303L882.217 360.27C883.269 359.419 884.829 359.562 885.699 360.636C886.559 361.698 886.393 363.26 885.333 364.119L877.877 370.153ZM884.355 373.325C883.545 372.324 883.698 370.855 884.701 370.044L888.046 367.336C889.053 366.522 890.523 366.688 891.327 367.681C892.137 368.682 891.981 370.154 890.981 370.964L887.635 373.671C886.649 374.47 885.175 374.34 884.355 373.325ZM925.317 355.856C926.43 357.275 926.181 359.335 924.762 360.449C923.325 361.577 921.274 361.303 920.169 359.895L911.054 348.28C910.49 347.562 909.453 347.437 908.737 348C908.02 348.563 907.895 349.601 908.458 350.317L917.573 361.932C918.688 363.354 918.441 365.41 917.018 366.526C915.599 367.638 913.54 367.389 912.425 365.971L903.311 354.356C902.748 353.637 901.71 353.515 900.994 354.076C900.277 354.639 900.152 355.676 900.714 356.394L908.272 366.026C909.385 367.446 909.137 369.505 907.718 370.619C906.307 371.727 904.248 371.496 903.126 370.065L894.53 359.11C893.966 358.392 892.93 358.269 892.213 358.83C891.495 359.393 891.37 360.43 891.932 361.147L899.491 370.78C900.606 372.202 900.359 374.257 898.937 375.373C897.52 376.487 895.463 376.244 894.345 374.819L893.213 373.377C895.475 371.396 895.801 367.963 893.894 365.604C892.75 364.193 891.058 363.5 889.368 363.542C889.826 361.633 889.344 359.893 888.266 358.56C887.224 357.274 885.74 356.566 884.208 356.449C884.656 354.552 884.182 352.821 883.102 351.486C882.087 350.232 880.606 349.402 878.708 349.371C878.968 347.606 878.46 346.076 877.502 344.893C875.517 342.442 871.931 342.049 869.457 343.984L862.02 334.505L884.751 316.667L888.179 321.037C883.408 327.42 881.407 335.914 883.827 340.132C886.319 344.472 892.555 343.171 895.712 339.005L901.001 332.056L906.038 332.904L907.815 333.205C908.96 334.688 903.675 327.846 919.074 347.779C919.077 347.782 919.08 347.784 919.082 347.786L925.317 355.856ZM917.644 301.857L921.915 298.548C923.436 297.37 925.599 297.669 926.756 299.162L947.565 326.015C948.13 326.744 948.376 327.649 948.26 328.563C948.144 329.478 947.679 330.293 946.95 330.857L942.68 334.166C941.176 335.332 939.005 335.055 937.839 333.552C913.861 299.962 922.131 311.547 920.342 309.041C919.92 308.442 919.14 308.174 918.395 308.459L917.031 306.699C915.865 305.194 916.14 303.023 917.644 301.857ZM912.844 318.482C913.188 318.418 913.503 318.246 913.742 317.991L918.051 313.405C919.785 315.669 911.772 305.204 935.005 335.547L922.224 346.148C905.556 324.99 911.257 332.227 910.033 330.674C909.779 330.345 909.41 330.124 909.001 330.055L900.565 328.635C899.961 328.535 899.349 328.775 898.977 329.263L893.083 337.008C891.426 339.195 887.906 340.604 886.691 338.488C885.081 335.684 886.707 328.224 891.174 322.546L912.844 318.482ZM850.566 323.656L877.297 302.682C878.789 301.51 880.957 301.761 882.137 303.265L885.476 307.521C886.651 309.019 886.392 311.185 884.892 312.361L858.161 333.336C856.641 334.529 854.479 334.23 853.32 332.752L849.982 328.498C848.809 327.002 849.071 324.83 850.566 323.656Z" fill="#4B505C"/>
<path d="M594.344 390V374.355H600.917C601.799 374.355 602.562 374.523 603.206 374.859C603.864 375.181 604.368 375.636 604.718 376.224C605.082 376.812 605.264 377.498 605.264 378.282C605.264 379.094 605.061 379.815 604.655 380.445C604.263 381.061 603.696 381.53 602.954 381.852L602.933 381.348C603.549 381.572 604.074 381.887 604.508 382.293C604.956 382.699 605.299 383.175 605.537 383.721C605.775 384.253 605.894 384.827 605.894 385.443C605.894 386.843 605.446 387.956 604.55 388.782C603.668 389.594 602.464 390 600.938 390H594.344ZM596.024 388.425H600.938C601.932 388.425 602.723 388.166 603.311 387.648C603.913 387.116 604.214 386.388 604.214 385.464C604.214 384.554 603.913 383.833 603.311 383.301C602.723 382.755 601.932 382.482 600.938 382.482H596.024V388.425ZM596.024 380.97H600.791C601.631 380.97 602.303 380.725 602.807 380.235C603.325 379.745 603.584 379.115 603.584 378.345C603.584 377.561 603.325 376.966 602.807 376.56C602.303 376.14 601.631 375.93 600.791 375.93H596.024V380.97ZM614.364 390.252C613.3 390.252 612.334 390 611.466 389.496C610.598 388.978 609.905 388.278 609.387 387.396C608.883 386.5 608.631 385.485 608.631 384.351C608.631 383.231 608.883 382.23 609.387 381.348C609.891 380.466 610.57 379.773 611.424 379.269C612.292 378.751 613.272 378.492 614.364 378.492C615.456 378.492 616.429 378.744 617.283 379.248C618.151 379.752 618.83 380.445 619.32 381.327C619.824 382.209 620.076 383.217 620.076 384.351C620.076 385.499 619.817 386.521 619.299 387.417C618.781 388.299 618.088 388.992 617.22 389.496C616.366 390 615.414 390.252 614.364 390.252ZM614.364 388.677C615.12 388.677 615.799 388.488 616.401 388.11C617.017 387.732 617.5 387.214 617.85 386.556C618.214 385.898 618.396 385.163 618.396 384.351C618.396 383.539 618.214 382.811 617.85 382.167C617.5 381.523 617.017 381.012 616.401 380.634C615.799 380.256 615.12 380.067 614.364 380.067C613.608 380.067 612.922 380.256 612.306 380.634C611.704 381.012 611.221 381.523 610.857 382.167C610.493 382.811 610.311 383.539 610.311 384.351C610.311 385.163 610.493 385.898 610.857 386.556C611.221 387.214 611.704 387.732 612.306 388.11C612.922 388.488 613.608 388.677 614.364 388.677ZM628.545 390.252C627.481 390.252 626.515 390 625.647 389.496C624.779 388.978 624.086 388.278 623.568 387.396C623.064 386.5 622.812 385.485 622.812 384.351C622.812 383.231 623.064 382.23 623.568 381.348C624.072 380.466 624.751 379.773 625.605 379.269C626.473 378.751 627.453 378.492 628.545 378.492C629.637 378.492 630.61 378.744 631.464 379.248C632.332 379.752 633.011 380.445 633.501 381.327C634.005 382.209 634.257 383.217 634.257 384.351C634.257 385.499 633.998 386.521 633.48 387.417C632.962 388.299 632.269 388.992 631.401 389.496C630.547 390 629.595 390.252 628.545 390.252ZM628.545 388.677C629.301 388.677 629.98 388.488 630.582 388.11C631.198 387.732 631.681 387.214 632.031 386.556C632.395 385.898 632.577 385.163 632.577 384.351C632.577 383.539 632.395 382.811 632.031 382.167C631.681 381.523 631.198 381.012 630.582 380.634C629.98 380.256 629.301 380.067 628.545 380.067C627.789 380.067 627.103 380.256 626.487 380.634C625.885 381.012 625.402 381.523 625.038 382.167C624.674 382.811 624.492 383.539 624.492 384.351C624.492 385.163 624.674 385.898 625.038 386.556C625.402 387.214 625.885 387.732 626.487 388.11C627.103 388.488 627.789 388.677 628.545 388.677ZM641.361 390.252C640.283 390.252 639.338 389.979 638.526 389.433C637.714 388.887 637.126 388.145 636.762 387.207L638.085 386.577C638.407 387.263 638.855 387.809 639.429 388.215C640.017 388.621 640.661 388.824 641.361 388.824C642.033 388.824 642.6 388.663 643.062 388.341C643.524 388.005 643.755 387.571 643.755 387.039C643.755 386.647 643.643 386.339 643.419 386.115C643.195 385.877 642.936 385.695 642.642 385.569C642.348 385.443 642.089 385.352 641.865 385.296L640.248 384.834C639.212 384.54 638.463 384.127 638.001 383.595C637.539 383.063 637.308 382.447 637.308 381.747C637.308 381.089 637.476 380.515 637.812 380.025C638.148 379.535 638.603 379.157 639.177 378.891C639.751 378.625 640.388 378.492 641.088 378.492C642.04 378.492 642.901 378.744 643.671 379.248C644.455 379.738 645.008 380.424 645.33 381.306L643.986 381.936C643.706 381.306 643.3 380.816 642.768 380.466C642.25 380.102 641.669 379.92 641.025 379.92C640.395 379.92 639.891 380.081 639.513 380.403C639.135 380.725 638.946 381.131 638.946 381.621C638.946 381.999 639.044 382.3 639.24 382.524C639.436 382.748 639.66 382.916 639.912 383.028C640.178 383.14 640.409 383.224 640.605 383.28L642.474 383.826C643.384 384.092 644.091 384.505 644.595 385.065C645.113 385.625 645.372 386.283 645.372 387.039C645.372 387.655 645.197 388.208 644.847 388.698C644.511 389.188 644.042 389.573 643.44 389.853C642.838 390.119 642.145 390.252 641.361 390.252ZM652.865 390.126C651.857 390.126 651.08 389.832 650.534 389.244C649.988 388.656 649.715 387.816 649.715 386.724V380.319H647.636V378.744H648.161C648.637 378.744 649.015 378.59 649.295 378.282C649.575 377.96 649.715 377.561 649.715 377.085V376.14H651.29V378.744H653.768V380.319H651.29V386.724C651.29 387.102 651.346 387.438 651.458 387.732C651.57 388.012 651.759 388.236 652.025 388.404C652.305 388.572 652.676 388.656 653.138 388.656C653.25 388.656 653.383 388.649 653.537 388.635C653.691 388.621 653.824 388.607 653.936 388.593V390C653.768 390.042 653.579 390.07 653.369 390.084C653.159 390.112 652.991 390.126 652.865 390.126ZM552.925 419V403.355H558.301C559.323 403.355 560.219 403.558 560.989 403.964C561.759 404.356 562.354 404.916 562.774 405.644C563.208 406.358 563.425 407.191 563.425 408.143C563.425 409.095 563.208 409.928 562.774 410.642C562.354 411.356 561.759 411.916 560.989 412.322C560.233 412.714 559.337 412.91 558.301 412.91H554.605V419H552.925ZM554.605 411.335H558.385C559.057 411.335 559.645 411.209 560.149 410.957C560.653 410.691 561.045 410.32 561.325 409.844C561.605 409.354 561.745 408.78 561.745 408.122C561.745 407.464 561.605 406.897 561.325 406.421C561.045 405.945 560.653 405.581 560.149 405.329C559.645 405.063 559.057 404.93 558.385 404.93H554.605V411.335ZM566.608 419V407.744H568.183V409.592L567.973 409.319C568.239 408.787 568.638 408.367 569.17 408.059C569.716 407.751 570.374 407.597 571.144 407.597H571.858V409.172H570.871C570.059 409.172 569.408 409.424 568.918 409.928C568.428 410.432 568.183 411.146 568.183 412.07V419H566.608ZM579.395 419.252C578.331 419.252 577.365 419 576.497 418.496C575.629 417.978 574.936 417.278 574.418 416.396C573.914 415.5 573.662 414.485 573.662 413.351C573.662 412.231 573.914 411.23 574.418 410.348C574.922 409.466 575.601 408.773 576.455 408.269C577.323 407.751 578.303 407.492 579.395 407.492C580.487 407.492 581.46 407.744 582.314 408.248C583.182 408.752 583.861 409.445 584.351 410.327C584.855 411.209 585.107 412.217 585.107 413.351C585.107 414.499 584.848 415.521 584.33 416.417C583.812 417.299 583.119 417.992 582.251 418.496C581.397 419 580.445 419.252 579.395 419.252ZM579.395 417.677C580.151 417.677 580.83 417.488 581.432 417.11C582.048 416.732 582.531 416.214 582.881 415.556C583.245 414.898 583.427 414.163 583.427 413.351C583.427 412.539 583.245 411.811 582.881 411.167C582.531 410.523 582.048 410.012 581.432 409.634C580.83 409.256 580.151 409.067 579.395 409.067C578.639 409.067 577.953 409.256 577.337 409.634C576.735 410.012 576.252 410.523 575.888 411.167C575.524 411.811 575.342 412.539 575.342 413.351C575.342 414.163 575.524 414.898 575.888 415.556C576.252 416.214 576.735 416.732 577.337 417.11C577.953 417.488 578.639 417.677 579.395 417.677ZM593.387 419.252C592.337 419.252 591.392 419 590.552 418.496C589.712 417.978 589.047 417.278 588.557 416.396C588.081 415.5 587.843 414.492 587.843 413.372C587.843 412.238 588.081 411.23 588.557 410.348C589.047 409.466 589.705 408.773 590.531 408.269C591.371 407.751 592.323 407.492 593.387 407.492C594.353 407.492 595.214 407.702 595.97 408.122C596.726 408.542 597.321 409.109 597.755 409.823L597.503 410.264V403.103H599.078V419H597.503V416.48L597.755 416.711C597.363 417.523 596.775 418.153 595.991 418.601C595.221 419.035 594.353 419.252 593.387 419.252ZM593.471 417.677C594.227 417.677 594.906 417.488 595.508 417.11C596.124 416.732 596.607 416.221 596.957 415.577C597.321 414.919 597.503 414.184 597.503 413.372C597.503 412.56 597.321 411.832 596.957 411.188C596.607 410.53 596.124 410.012 595.508 409.634C594.906 409.256 594.227 409.067 593.471 409.067C592.729 409.067 592.057 409.256 591.455 409.634C590.853 410.012 590.377 410.523 590.027 411.167C589.691 411.811 589.523 412.546 589.523 413.372C589.523 414.184 589.691 414.919 590.027 415.577C590.377 416.221 590.846 416.732 591.434 417.11C592.036 417.488 592.715 417.677 593.471 417.677ZM606.722 419.252C605.938 419.252 605.224 419.07 604.58 418.706C603.936 418.328 603.425 417.81 603.047 417.152C602.683 416.48 602.501 415.71 602.501 414.842V407.744H604.076V414.653C604.076 415.255 604.195 415.787 604.433 416.249C604.685 416.697 605.028 417.047 605.462 417.299C605.91 417.551 606.421 417.677 606.995 417.677C607.569 417.677 608.08 417.551 608.528 417.299C608.976 417.033 609.326 416.662 609.578 416.186C609.83 415.696 609.956 415.115 609.956 414.443V407.744H611.531V419H609.956V416.816L610.313 416.9C610.047 417.628 609.592 418.202 608.948 418.622C608.304 419.042 607.562 419.252 606.722 419.252ZM620.335 419.252C619.229 419.252 618.256 418.993 617.416 418.475C616.576 417.957 615.918 417.257 615.442 416.375C614.966 415.479 614.728 414.471 614.728 413.351C614.728 412.231 614.966 411.23 615.442 410.348C615.918 409.466 616.576 408.773 617.416 408.269C618.256 407.751 619.229 407.492 620.335 407.492C621.035 407.492 621.693 407.618 622.309 407.87C622.925 408.122 623.471 408.465 623.947 408.899C624.423 409.319 624.78 409.809 625.018 410.369L623.59 411.104C623.31 410.502 622.883 410.012 622.309 409.634C621.735 409.256 621.077 409.067 620.335 409.067C619.593 409.067 618.921 409.256 618.319 409.634C617.731 409.998 617.262 410.509 616.912 411.167C616.576 411.811 616.408 412.546 616.408 413.372C616.408 414.184 616.576 414.919 616.912 415.577C617.262 416.221 617.731 416.732 618.319 417.11C618.921 417.488 619.593 417.677 620.335 417.677C621.077 417.677 621.728 417.488 622.288 417.11C622.862 416.732 623.296 416.228 623.59 415.598L625.018 416.375C624.78 416.921 624.423 417.411 623.947 417.845C623.471 418.279 622.925 418.622 622.309 418.874C621.693 419.126 621.035 419.252 620.335 419.252ZM632.506 419.126C631.498 419.126 630.721 418.832 630.175 418.244C629.629 417.656 629.356 416.816 629.356 415.724V409.319H627.277V407.744H627.802C628.278 407.744 628.656 407.59 628.936 407.282C629.216 406.96 629.356 406.561 629.356 406.085V405.14H630.931V407.744H633.409V409.319H630.931V415.724C630.931 416.102 630.987 416.438 631.099 416.732C631.211 417.012 631.4 417.236 631.666 417.404C631.946 417.572 632.317 417.656 632.779 417.656C632.891 417.656 633.024 417.649 633.178 417.635C633.332 417.621 633.465 417.607 633.577 417.593V419C633.409 419.042 633.22 419.07 633.01 419.084C632.8 419.112 632.632 419.126 632.506 419.126ZM636.763 419V407.744H638.338V419H636.763ZM636.763 405.665V403.355H638.338V405.665H636.763ZM644.985 419L640.596 407.744H642.36L646.056 417.614H645.489L649.206 407.744H650.991L646.56 419H644.985ZM653.25 419V407.744H654.825V419H653.25ZM653.25 405.665V403.355H654.825V405.665H653.25ZM662.774 419.126C661.766 419.126 660.989 418.832 660.443 418.244C659.897 417.656 659.624 416.816 659.624 415.724V409.319H657.545V407.744H658.07C658.546 407.744 658.924 407.59 659.204 407.282C659.484 406.96 659.624 406.561 659.624 406.085V405.14H661.199V407.744H663.677V409.319H661.199V415.724C661.199 416.102 661.255 416.438 661.367 416.732C661.479 417.012 661.668 417.236 661.934 417.404C662.214 417.572 662.585 417.656 663.047 417.656C663.159 417.656 663.292 417.649 663.446 417.635C663.6 417.621 663.733 417.607 663.845 417.593V419C663.677 419.042 663.488 419.07 663.278 419.084C663.068 419.112 662.9 419.126 662.774 419.126ZM667.262 423.62C667.038 423.62 666.807 423.599 666.569 423.557C666.345 423.529 666.121 423.473 665.897 423.389V421.919C666.037 421.933 666.212 421.954 666.422 421.982C666.646 422.024 666.87 422.045 667.094 422.045C667.78 422.045 668.305 421.898 668.669 421.604C669.033 421.324 669.39 420.778 669.74 419.966L670.454 418.286L670.412 419.672L665.645 407.744H667.346L671.252 417.593H670.811L674.696 407.744H676.439L671.294 420.428C671.07 420.974 670.783 421.492 670.433 421.982C670.097 422.472 669.67 422.864 669.152 423.158C668.634 423.466 668.004 423.62 667.262 423.62ZM686.625 419.252C685.785 419.252 685.036 419.091 684.378 418.769C683.72 418.447 683.202 417.992 682.824 417.404C682.446 416.816 682.257 416.13 682.257 415.346C682.257 414.674 682.383 414.079 682.635 413.561C682.887 413.043 683.195 412.595 683.559 412.217C683.937 411.825 684.315 411.496 684.693 411.23C685.085 410.964 685.414 410.747 685.68 410.579L686.772 409.907C687.164 409.669 687.549 409.403 687.927 409.109C688.319 408.801 688.641 408.451 688.893 408.059C689.159 407.653 689.292 407.205 689.292 406.715C689.292 406.127 689.096 405.637 688.704 405.245C688.312 404.853 687.822 404.657 687.234 404.657C686.632 404.657 686.135 404.853 685.743 405.245C685.365 405.637 685.176 406.134 685.176 406.736C685.176 407.128 685.267 407.513 685.449 407.891C685.645 408.269 685.883 408.633 686.163 408.983C686.457 409.319 686.758 409.648 687.066 409.97L695.676 419H693.429L685.743 411.062C685.407 410.712 685.064 410.327 684.714 409.907C684.378 409.473 684.091 409.004 683.853 408.5C683.615 407.982 683.496 407.415 683.496 406.799C683.496 406.071 683.664 405.434 684 404.888C684.336 404.328 684.784 403.894 685.344 403.586C685.918 403.264 686.548 403.103 687.234 403.103C687.906 403.103 688.522 403.257 689.082 403.565C689.642 403.873 690.09 404.3 690.426 404.846C690.762 405.392 690.93 406.015 690.93 406.715C690.93 407.457 690.755 408.108 690.405 408.668C690.069 409.214 689.656 409.683 689.166 410.075C688.676 410.467 688.221 410.796 687.801 411.062L686.751 411.713C686.373 411.951 685.974 412.238 685.554 412.574C685.134 412.896 684.777 413.281 684.483 413.729C684.189 414.163 684.042 414.688 684.042 415.304C684.042 416.06 684.287 416.648 684.777 417.068C685.267 417.488 685.897 417.698 686.667 417.698C687.171 417.698 687.619 417.614 688.011 417.446C688.403 417.278 688.753 417.061 689.061 416.795C689.369 416.515 689.649 416.207 689.901 415.871C690.153 415.521 690.391 415.178 690.615 414.842L693.03 411.251H694.941L692.127 415.535C691.903 415.885 691.63 416.277 691.308 416.711C690.986 417.131 690.608 417.537 690.174 417.929C689.74 418.307 689.229 418.622 688.641 418.874C688.067 419.126 687.395 419.252 686.625 419.252ZM574.718 448V432.355H584.798V433.93H576.398V439.369H584.378V440.944H576.398V446.425H584.798V448H574.718ZM588.921 448V438.319H586.674V436.744H588.921V435.736C588.921 434.952 589.096 434.294 589.446 433.762C589.796 433.216 590.258 432.803 590.832 432.523C591.406 432.243 592.022 432.103 592.68 432.103C592.82 432.103 592.981 432.117 593.163 432.145C593.345 432.159 593.492 432.18 593.604 432.208V433.636C593.506 433.608 593.373 433.594 593.205 433.594C593.037 433.58 592.918 433.573 592.848 433.573C592.176 433.573 591.616 433.734 591.168 434.056C590.72 434.378 590.496 434.938 590.496 435.736V436.744H596.817V438.319H590.496V448H588.921ZM603.537 448V436.744H605.112V448H603.537ZM596.964 448V438.319H594.717V436.744H596.964V435.736C596.964 434.952 597.139 434.294 597.489 433.762C597.839 433.216 598.301 432.803 598.875 432.523C599.449 432.243 600.065 432.103 600.723 432.103C600.863 432.103 601.024 432.117 601.206 432.145C601.388 432.159 601.535 432.18 601.647 432.208V433.636C601.549 433.608 601.416 433.594 601.248 433.594C601.08 433.58 600.961 433.573 600.891 433.573C600.219 433.573 599.659 433.734 599.211 434.056C598.763 434.378 598.539 434.938 598.539 435.736V436.744H604.86V438.319H598.539V448H596.964ZM613.592 448.252C612.486 448.252 611.513 447.993 610.673 447.475C609.833 446.957 609.175 446.257 608.699 445.375C608.223 444.479 607.985 443.471 607.985 442.351C607.985 441.231 608.223 440.23 608.699 439.348C609.175 438.466 609.833 437.773 610.673 437.269C611.513 436.751 612.486 436.492 613.592 436.492C614.292 436.492 614.95 436.618 615.566 436.87C616.182 437.122 616.728 437.465 617.204 437.899C617.68 438.319 618.037 438.809 618.275 439.369L616.847 440.104C616.567 439.502 616.14 439.012 615.566 438.634C614.992 438.256 614.334 438.067 613.592 438.067C612.85 438.067 612.178 438.256 611.576 438.634C610.988 438.998 610.519 439.509 610.169 440.167C609.833 440.811 609.665 441.546 609.665 442.372C609.665 443.184 609.833 443.919 610.169 444.577C610.519 445.221 610.988 445.732 611.576 446.11C612.178 446.488 612.85 446.677 613.592 446.677C614.334 446.677 614.985 446.488 615.545 446.11C616.119 445.732 616.553 445.228 616.847 444.598L618.275 445.375C618.037 445.921 617.68 446.411 617.204 446.845C616.728 447.279 616.182 447.622 615.566 447.874C614.95 448.126 614.292 448.252 613.592 448.252ZM621.459 448V436.744H623.034V448H621.459ZM621.459 434.665V432.355H623.034V434.665H621.459ZM631.802 448.252C630.752 448.252 629.8 448 628.946 447.496C628.106 446.978 627.441 446.271 626.951 445.375C626.461 444.479 626.216 443.464 626.216 442.33C626.216 441.196 626.454 440.195 626.93 439.327C627.406 438.445 628.05 437.752 628.862 437.248C629.688 436.744 630.612 436.492 631.634 436.492C632.446 436.492 633.167 436.646 633.797 436.954C634.441 437.248 634.987 437.654 635.435 438.172C635.883 438.676 636.226 439.25 636.464 439.894C636.702 440.524 636.821 441.175 636.821 441.847C636.821 441.987 636.814 442.148 636.8 442.33C636.786 442.498 636.765 442.673 636.737 442.855H627.224V441.385H635.834L635.078 442.015C635.204 441.245 635.113 440.559 634.805 439.957C634.511 439.341 634.084 438.858 633.524 438.508C632.964 438.144 632.334 437.962 631.634 437.962C630.934 437.962 630.283 438.144 629.681 438.508C629.093 438.872 628.631 439.383 628.295 440.041C627.959 440.685 627.826 441.455 627.896 442.351C627.826 443.247 627.966 444.031 628.316 444.703C628.68 445.361 629.17 445.872 629.786 446.236C630.416 446.6 631.088 446.782 631.802 446.782C632.628 446.782 633.321 446.586 633.881 446.194C634.441 445.802 634.896 445.312 635.246 444.724L636.59 445.438C636.366 445.942 636.023 446.411 635.561 446.845C635.099 447.265 634.546 447.608 633.902 447.874C633.272 448.126 632.572 448.252 631.802 448.252ZM640.018 448V436.744H641.593V438.928L641.236 438.844C641.516 438.116 641.971 437.542 642.601 437.122C643.245 436.702 643.987 436.492 644.827 436.492C645.625 436.492 646.339 436.674 646.969 437.038C647.613 437.402 648.117 437.906 648.481 438.55C648.859 439.18 649.048 439.894 649.048 440.692V448H647.473V441.301C647.473 440.615 647.347 440.034 647.095 439.558C646.857 439.082 646.514 438.718 646.066 438.466C645.632 438.2 645.128 438.067 644.554 438.067C643.98 438.067 643.469 438.2 643.021 438.466C642.573 438.718 642.223 439.089 641.971 439.579C641.719 440.055 641.593 440.629 641.593 441.301V448H640.018ZM657.621 448.252C656.515 448.252 655.542 447.993 654.702 447.475C653.862 446.957 653.204 446.257 652.728 445.375C652.252 444.479 652.014 443.471 652.014 442.351C652.014 441.231 652.252 440.23 652.728 439.348C653.204 438.466 653.862 437.773 654.702 437.269C655.542 436.751 656.515 436.492 657.621 436.492C658.321 436.492 658.979 436.618 659.595 436.87C660.211 437.122 660.757 437.465 661.233 437.899C661.709 438.319 662.066 438.809 662.304 439.369L660.876 440.104C660.596 439.502 660.169 439.012 659.595 438.634C659.021 438.256 658.363 438.067 657.621 438.067C656.879 438.067 656.207 438.256 655.605 438.634C655.017 438.998 654.548 439.509 654.198 440.167C653.862 440.811 653.694 441.546 653.694 442.372C653.694 443.184 653.862 443.919 654.198 444.577C654.548 445.221 655.017 445.732 655.605 446.11C656.207 446.488 656.879 446.677 657.621 446.677C658.363 446.677 659.014 446.488 659.574 446.11C660.148 445.732 660.582 445.228 660.876 444.598L662.304 445.375C662.066 445.921 661.709 446.411 661.233 446.845C660.757 447.279 660.211 447.622 659.595 447.874C658.979 448.126 658.321 448.252 657.621 448.252ZM665.719 452.62C665.495 452.62 665.264 452.599 665.026 452.557C664.802 452.529 664.578 452.473 664.354 452.389V450.919C664.494 450.933 664.669 450.954 664.879 450.982C665.103 451.024 665.327 451.045 665.551 451.045C666.237 451.045 666.762 450.898 667.126 450.604C667.49 450.324 667.847 449.778 668.197 448.966L668.911 447.286L668.869 448.672L664.102 436.744H665.803L669.709 446.593H669.268L673.153 436.744H674.896L669.751 449.428C669.527 449.974 669.24 450.492 668.89 450.982C668.554 451.472 668.127 451.864 667.609 452.158C667.091 452.466 666.461 452.62 665.719 452.62Z" fill="#A6A1AC"/>
<line x1="624.5" y1="1" x2="624.5" y2="118" stroke="#2171E4"/>
<rect x="514.778" y="117.778" width="218.444" height="218.444" stroke="url(#paint1_linear_1_1744)" stroke-width="1.55574"/>
<path d="M596.417 244.868C596.417 241.095 593.464 238.142 589.691 238.142C585.917 238.142 582.964 241.095 582.964 244.868C582.964 248.642 585.917 251.595 589.691 251.595C593.3 251.595 596.417 248.478 596.417 244.868ZM586.246 244.868C586.246 242.9 587.722 241.423 589.691 241.423C591.659 241.423 593.136 242.9 593.136 244.868C593.136 246.837 591.659 248.314 589.691 248.314C587.722 248.314 586.246 246.673 586.246 244.868Z" fill="#4B505C"/>
<path d="M665.322 189.581C665.322 185.807 662.369 182.854 658.595 182.854C654.822 182.854 651.869 185.807 651.869 189.581C651.869 193.354 654.822 196.307 658.595 196.307C662.369 196.307 665.322 193.354 665.322 189.581ZM655.15 189.581C655.15 187.612 656.627 186.135 658.595 186.135C660.564 186.135 662.04 187.612 662.04 189.581C662.04 191.549 660.564 193.026 658.595 193.026C656.791 193.026 655.15 191.549 655.15 189.581Z" fill="#4B505C"/>
<path d="M629.228 217.143C629.392 217.143 659.087 217.143 658.759 217.143C659.087 217.143 659.415 217.143 659.907 216.651C661.548 215.01 675.985 200.081 675.985 191.058C675.985 181.543 668.11 173.832 658.595 173.832C649.079 173.832 641.369 181.543 641.369 191.058C641.369 198.112 650.228 208.776 654.821 213.862H629.228C625.127 213.862 621.518 216.159 619.713 219.768C615.612 220.096 612.166 223.541 612.166 227.643C612.166 232.072 615.776 235.682 620.205 235.682C621.19 235.682 622.174 235.518 622.994 235.19C625.947 238.143 629.721 239.619 633.822 239.619H643.009C649.9 239.619 655.642 244.541 656.79 251.103C652.689 251.431 649.408 254.877 649.408 258.978C649.408 261.603 650.72 263.736 652.525 265.212C649.9 267.509 646.619 268.986 643.009 268.986H632.017C631.197 265.376 628.08 262.587 624.143 262.587C620.369 262.587 617.088 265.376 616.268 268.986H593.464C598.057 263.9 606.917 253.236 606.917 246.181C606.917 236.666 599.206 228.955 589.69 228.955C580.175 228.955 572.3 236.83 572.3 246.346C572.3 255.369 586.737 270.298 588.378 271.939C590.019 273.579 588.542 272.103 588.706 272.103C589.034 272.267 589.362 272.431 589.69 272.431H616.268C617.088 276.04 620.205 278.829 624.143 278.829C628.08 278.829 631.197 276.04 632.017 272.431H643.009C647.767 272.431 652.361 270.462 655.642 266.853C656.134 267.017 656.79 267.017 657.446 267.017C661.876 267.017 665.485 263.408 665.485 258.978C665.485 255.533 663.352 252.58 660.235 251.431C659.251 242.736 651.868 236.174 643.009 236.174H633.822C630.869 236.174 628.08 235.026 625.947 233.057C627.424 231.58 628.244 229.612 628.244 227.315C628.244 224.034 626.111 221.081 623.158 219.932C624.471 218.456 626.768 217.143 629.228 217.143ZM658.595 177.113C666.305 177.113 672.54 183.347 672.54 191.058C672.54 196.964 663.352 208.12 658.595 213.206C653.837 208.12 644.65 197.128 644.65 191.058C644.65 183.347 650.884 177.113 658.595 177.113ZM589.69 232.401C597.401 232.401 603.635 238.635 603.635 246.346C603.635 252.252 594.448 263.408 589.69 268.493C584.933 263.408 575.746 252.416 575.746 246.346C575.581 238.635 581.98 232.401 589.69 232.401ZM624.143 275.548C621.518 275.548 619.385 273.415 619.385 270.79C619.385 268.165 621.518 266.032 624.143 266.032C626.768 266.032 628.9 268.165 628.9 270.79C628.9 273.415 626.768 275.548 624.143 275.548ZM662.04 259.142C662.04 261.767 659.907 263.9 657.282 263.9C654.657 263.9 652.525 261.767 652.525 259.142C652.525 256.517 654.657 254.384 657.282 254.384C659.907 254.384 662.04 256.517 662.04 259.142ZM624.963 227.807C624.963 230.432 622.83 232.565 620.205 232.565C617.58 232.565 615.448 230.432 615.448 227.807C615.448 225.182 617.58 223.049 620.205 223.049C622.83 223.049 624.963 225.182 624.963 227.807Z" fill="#4B505C"/>
<path d="M303.002 507.252C301.896 507.252 300.923 507.021 300.083 506.559C299.243 506.097 298.592 505.467 298.13 504.669C297.668 503.857 297.437 502.933 297.437 501.897V491.355H299.117V501.897C299.117 502.653 299.278 503.318 299.6 503.892C299.936 504.452 300.391 504.893 300.965 505.215C301.553 505.523 302.232 505.677 303.002 505.677C303.772 505.677 304.444 505.523 305.018 505.215C305.606 504.893 306.061 504.452 306.383 503.892C306.719 503.318 306.887 502.653 306.887 501.897V491.355H308.567V501.897C308.567 502.933 308.336 503.857 307.874 504.669C307.412 505.467 306.761 506.097 305.921 506.559C305.095 507.021 304.122 507.252 303.002 507.252ZM312.394 507V495.744H313.969V497.928L313.612 497.844C313.892 497.116 314.347 496.542 314.977 496.122C315.621 495.702 316.363 495.492 317.203 495.492C318.001 495.492 318.715 495.674 319.345 496.038C319.989 496.402 320.493 496.906 320.857 497.55C321.235 498.18 321.424 498.894 321.424 499.692V507H319.849V500.301C319.849 499.615 319.723 499.034 319.471 498.558C319.233 498.082 318.89 497.718 318.442 497.466C318.008 497.2 317.504 497.067 316.93 497.067C316.356 497.067 315.845 497.2 315.397 497.466C314.949 497.718 314.599 498.089 314.347 498.579C314.095 499.055 313.969 499.629 313.969 500.301V507H312.394ZM324.852 507V495.744H326.427V497.886L326.175 497.571C326.483 496.913 326.938 496.402 327.54 496.038C328.156 495.674 328.828 495.492 329.556 495.492C330.424 495.492 331.208 495.737 331.908 496.227C332.608 496.717 333.105 497.354 333.399 498.138L332.958 498.159C333.238 497.291 333.721 496.633 334.407 496.185C335.107 495.723 335.877 495.492 336.717 495.492C337.473 495.492 338.166 495.674 338.796 496.038C339.44 496.402 339.951 496.906 340.329 497.55C340.721 498.18 340.917 498.894 340.917 499.692V507H339.342V500.301C339.342 499.615 339.216 499.034 338.964 498.558C338.726 498.082 338.397 497.718 337.977 497.466C337.557 497.2 337.074 497.067 336.528 497.067C335.996 497.067 335.513 497.2 335.079 497.466C334.645 497.718 334.302 498.089 334.05 498.579C333.798 499.055 333.672 499.629 333.672 500.301V507H332.097V500.301C332.097 499.615 331.971 499.034 331.719 498.558C331.481 498.082 331.152 497.718 330.732 497.466C330.312 497.2 329.829 497.067 329.283 497.067C328.737 497.067 328.247 497.2 327.813 497.466C327.393 497.718 327.057 498.089 326.805 498.579C326.553 499.055 326.427 499.629 326.427 500.301V507H324.852ZM347.599 507.252C346.885 507.252 346.248 507.119 345.688 506.853C345.128 506.573 344.687 506.195 344.365 505.719C344.043 505.243 343.882 504.697 343.882 504.081C343.882 503.493 344.008 502.961 344.26 502.485C344.512 501.995 344.904 501.582 345.436 501.246C345.968 500.91 346.647 500.672 347.473 500.532L351.883 499.797V501.225L347.851 501.897C347.039 502.037 346.451 502.296 346.087 502.674C345.737 503.052 345.562 503.5 345.562 504.018C345.562 504.522 345.758 504.949 346.15 505.299C346.556 505.649 347.074 505.824 347.704 505.824C348.474 505.824 349.146 505.663 349.72 505.341C350.294 505.005 350.742 504.557 351.064 503.997C351.386 503.437 351.547 502.814 351.547 502.128V499.272C351.547 498.6 351.302 498.054 350.812 497.634C350.322 497.214 349.685 497.004 348.901 497.004C348.215 497.004 347.613 497.179 347.095 497.529C346.577 497.865 346.192 498.306 345.94 498.852L344.512 498.075C344.722 497.599 345.051 497.165 345.499 496.773C345.961 496.381 346.486 496.073 347.074 495.849C347.662 495.611 348.271 495.492 348.901 495.492C349.727 495.492 350.455 495.653 351.085 495.975C351.729 496.297 352.226 496.745 352.576 497.319C352.94 497.879 353.122 498.53 353.122 499.272V507H351.547V504.753L351.778 504.984C351.582 505.404 351.274 505.789 350.854 506.139C350.448 506.475 349.965 506.748 349.405 506.958C348.859 507.154 348.257 507.252 347.599 507.252ZM360.881 507.126C359.873 507.126 359.096 506.832 358.55 506.244C358.004 505.656 357.731 504.816 357.731 503.724V497.319H355.652V495.744H356.177C356.653 495.744 357.031 495.59 357.311 495.282C357.591 494.96 357.731 494.561 357.731 494.085V493.14H359.306V495.744H361.784V497.319H359.306V503.724C359.306 504.102 359.362 504.438 359.474 504.732C359.586 505.012 359.775 505.236 360.041 505.404C360.321 505.572 360.692 505.656 361.154 505.656C361.266 505.656 361.399 505.649 361.553 505.635C361.707 505.621 361.84 505.607 361.952 505.593V507C361.784 507.042 361.595 507.07 361.385 507.084C361.175 507.112 361.007 507.126 360.881 507.126ZM369.873 507.252C368.767 507.252 367.794 506.993 366.954 506.475C366.114 505.957 365.456 505.257 364.98 504.375C364.504 503.479 364.266 502.471 364.266 501.351C364.266 500.231 364.504 499.23 364.98 498.348C365.456 497.466 366.114 496.773 366.954 496.269C367.794 495.751 368.767 495.492 369.873 495.492C370.573 495.492 371.231 495.618 371.847 495.87C372.463 496.122 373.009 496.465 373.485 496.899C373.961 497.319 374.318 497.809 374.556 498.369L373.128 499.104C372.848 498.502 372.421 498.012 371.847 497.634C371.273 497.256 370.615 497.067 369.873 497.067C369.131 497.067 368.459 497.256 367.857 497.634C367.269 497.998 366.8 498.509 366.45 499.167C366.114 499.811 365.946 500.546 365.946 501.372C365.946 502.184 366.114 502.919 366.45 503.577C366.8 504.221 367.269 504.732 367.857 505.11C368.459 505.488 369.131 505.677 369.873 505.677C370.615 505.677 371.266 505.488 371.826 505.11C372.4 504.732 372.834 504.228 373.128 503.598L374.556 504.375C374.318 504.921 373.961 505.411 373.485 505.845C373.009 506.279 372.463 506.622 371.847 506.874C371.231 507.126 370.573 507.252 369.873 507.252ZM377.74 507V491.103H379.315V497.928L378.958 497.844C379.238 497.116 379.693 496.542 380.323 496.122C380.967 495.702 381.709 495.492 382.549 495.492C383.347 495.492 384.061 495.674 384.691 496.038C385.335 496.402 385.839 496.906 386.203 497.55C386.581 498.18 386.77 498.894 386.77 499.692V507H385.195V500.301C385.195 499.615 385.069 499.034 384.817 498.558C384.565 498.082 384.215 497.718 383.767 497.466C383.333 497.2 382.836 497.067 382.276 497.067C381.716 497.067 381.212 497.2 380.764 497.466C380.316 497.718 379.959 498.089 379.693 498.579C379.441 499.055 379.315 499.629 379.315 500.301V507H377.74ZM395.322 507.252C394.272 507.252 393.32 507 392.466 506.496C391.626 505.978 390.961 505.271 390.471 504.375C389.981 503.479 389.736 502.464 389.736 501.33C389.736 500.196 389.974 499.195 390.45 498.327C390.926 497.445 391.57 496.752 392.382 496.248C393.208 495.744 394.132 495.492 395.154 495.492C395.966 495.492 396.687 495.646 397.317 495.954C397.961 496.248 398.507 496.654 398.955 497.172C399.403 497.676 399.746 498.25 399.984 498.894C400.222 499.524 400.341 500.175 400.341 500.847C400.341 500.987 400.334 501.148 400.32 501.33C400.306 501.498 400.285 501.673 400.257 501.855H390.744V500.385H399.354L398.598 501.015C398.724 500.245 398.633 499.559 398.325 498.957C398.031 498.341 397.604 497.858 397.044 497.508C396.484 497.144 395.854 496.962 395.154 496.962C394.454 496.962 393.803 497.144 393.201 497.508C392.613 497.872 392.151 498.383 391.815 499.041C391.479 499.685 391.346 500.455 391.416 501.351C391.346 502.247 391.486 503.031 391.836 503.703C392.2 504.361 392.69 504.872 393.306 505.236C393.936 505.6 394.608 505.782 395.322 505.782C396.148 505.782 396.841 505.586 397.401 505.194C397.961 504.802 398.416 504.312 398.766 503.724L400.11 504.438C399.886 504.942 399.543 505.411 399.081 505.845C398.619 506.265 398.066 506.608 397.422 506.874C396.792 507.126 396.092 507.252 395.322 507.252ZM408.62 507.252C407.57 507.252 406.625 507 405.785 506.496C404.945 505.978 404.28 505.278 403.79 504.396C403.314 503.5 403.076 502.492 403.076 501.372C403.076 500.238 403.314 499.23 403.79 498.348C404.28 497.466 404.938 496.773 405.764 496.269C406.604 495.751 407.556 495.492 408.62 495.492C409.586 495.492 410.447 495.702 411.203 496.122C411.959 496.542 412.554 497.109 412.988 497.823L412.736 498.264V491.103H414.311V507H412.736V504.48L412.988 504.711C412.596 505.523 412.008 506.153 411.224 506.601C410.454 507.035 409.586 507.252 408.62 507.252ZM408.704 505.677C409.46 505.677 410.139 505.488 410.741 505.11C411.357 504.732 411.84 504.221 412.19 503.577C412.554 502.919 412.736 502.184 412.736 501.372C412.736 500.56 412.554 499.832 412.19 499.188C411.84 498.53 411.357 498.012 410.741 497.634C410.139 497.256 409.46 497.067 408.704 497.067C407.962 497.067 407.29 497.256 406.688 497.634C406.086 498.012 405.61 498.523 405.26 499.167C404.924 499.811 404.756 500.546 404.756 501.372C404.756 502.184 404.924 502.919 405.26 503.577C405.61 504.221 406.079 504.732 406.667 505.11C407.269 505.488 407.948 505.677 408.704 505.677ZM309.719 536.252C308.725 536.252 307.822 536.063 307.01 535.685C306.198 535.307 305.512 534.803 304.952 534.173C304.392 533.529 303.993 532.822 303.755 532.052L305.267 531.485C305.631 532.549 306.198 533.361 306.968 533.921C307.738 534.467 308.655 534.74 309.719 534.74C310.391 534.74 310.979 534.635 311.483 534.425C312.001 534.201 312.4 533.893 312.68 533.501C312.96 533.109 313.1 532.654 313.1 532.136C313.1 531.366 312.89 530.771 312.47 530.351C312.05 529.931 311.448 529.609 310.664 529.385L307.85 528.545C306.744 528.223 305.89 527.684 305.288 526.928C304.7 526.172 304.406 525.311 304.406 524.345C304.406 523.519 304.609 522.791 305.015 522.161C305.421 521.517 305.974 521.013 306.674 520.649C307.388 520.285 308.193 520.103 309.089 520.103C310.027 520.103 310.867 520.278 311.609 520.628C312.365 520.964 313.002 521.412 313.52 521.972C314.038 522.532 314.409 523.155 314.633 523.841L313.163 524.429C312.827 523.505 312.302 522.805 311.588 522.329C310.888 521.853 310.062 521.615 309.11 521.615C308.508 521.615 307.976 521.72 307.514 521.93C307.066 522.14 306.716 522.441 306.464 522.833C306.212 523.225 306.086 523.687 306.086 524.219C306.086 524.863 306.289 525.444 306.695 525.962C307.101 526.466 307.724 526.844 308.564 527.096L311.042 527.831C312.274 528.195 313.205 528.72 313.835 529.406C314.465 530.092 314.78 530.953 314.78 531.989C314.78 532.829 314.563 533.571 314.129 534.215C313.709 534.845 313.114 535.342 312.344 535.706C311.588 536.07 310.713 536.252 309.719 536.252ZM323.358 536.252C322.252 536.252 321.279 535.993 320.439 535.475C319.599 534.957 318.941 534.257 318.465 533.375C317.989 532.479 317.751 531.471 317.751 530.351C317.751 529.231 317.989 528.23 318.465 527.348C318.941 526.466 319.599 525.773 320.439 525.269C321.279 524.751 322.252 524.492 323.358 524.492C324.058 524.492 324.716 524.618 325.332 524.87C325.948 525.122 326.494 525.465 326.97 525.899C327.446 526.319 327.803 526.809 328.041 527.369L326.613 528.104C326.333 527.502 325.906 527.012 325.332 526.634C324.758 526.256 324.1 526.067 323.358 526.067C322.616 526.067 321.944 526.256 321.342 526.634C320.754 526.998 320.285 527.509 319.935 528.167C319.599 528.811 319.431 529.546 319.431 530.372C319.431 531.184 319.599 531.919 319.935 532.577C320.285 533.221 320.754 533.732 321.342 534.11C321.944 534.488 322.616 534.677 323.358 534.677C324.1 534.677 324.751 534.488 325.311 534.11C325.885 533.732 326.319 533.228 326.613 532.598L328.041 533.375C327.803 533.921 327.446 534.411 326.97 534.845C326.494 535.279 325.948 535.622 325.332 535.874C324.716 536.126 324.058 536.252 323.358 536.252ZM334.275 536.252C333.561 536.252 332.924 536.119 332.364 535.853C331.804 535.573 331.363 535.195 331.041 534.719C330.719 534.243 330.558 533.697 330.558 533.081C330.558 532.493 330.684 531.961 330.936 531.485C331.188 530.995 331.58 530.582 332.112 530.246C332.644 529.91 333.323 529.672 334.149 529.532L338.559 528.797V530.225L334.527 530.897C333.715 531.037 333.127 531.296 332.763 531.674C332.413 532.052 332.238 532.5 332.238 533.018C332.238 533.522 332.434 533.949 332.826 534.299C333.232 534.649 333.75 534.824 334.38 534.824C335.15 534.824 335.822 534.663 336.396 534.341C336.97 534.005 337.418 533.557 337.74 532.997C338.062 532.437 338.223 531.814 338.223 531.128V528.272C338.223 527.6 337.978 527.054 337.488 526.634C336.998 526.214 336.361 526.004 335.577 526.004C334.891 526.004 334.289 526.179 333.771 526.529C333.253 526.865 332.868 527.306 332.616 527.852L331.188 527.075C331.398 526.599 331.727 526.165 332.175 525.773C332.637 525.381 333.162 525.073 333.75 524.849C334.338 524.611 334.947 524.492 335.577 524.492C336.403 524.492 337.131 524.653 337.761 524.975C338.405 525.297 338.902 525.745 339.252 526.319C339.616 526.879 339.798 527.53 339.798 528.272V536H338.223V533.753L338.454 533.984C338.258 534.404 337.95 534.789 337.53 535.139C337.124 535.475 336.641 535.748 336.081 535.958C335.535 536.154 334.933 536.252 334.275 536.252ZM343.457 536V520.103H345.032V536H343.457ZM351.931 536.252C351.217 536.252 350.58 536.119 350.02 535.853C349.46 535.573 349.019 535.195 348.697 534.719C348.375 534.243 348.214 533.697 348.214 533.081C348.214 532.493 348.34 531.961 348.592 531.485C348.844 530.995 349.236 530.582 349.768 530.246C350.3 529.91 350.979 529.672 351.805 529.532L356.215 528.797V530.225L352.183 530.897C351.371 531.037 350.783 531.296 350.419 531.674C350.069 532.052 349.894 532.5 349.894 533.018C349.894 533.522 350.09 533.949 350.482 534.299C350.888 534.649 351.406 534.824 352.036 534.824C352.806 534.824 353.478 534.663 354.052 534.341C354.626 534.005 355.074 533.557 355.396 532.997C355.718 532.437 355.879 531.814 355.879 531.128V528.272C355.879 527.6 355.634 527.054 355.144 526.634C354.654 526.214 354.017 526.004 353.233 526.004C352.547 526.004 351.945 526.179 351.427 526.529C350.909 526.865 350.524 527.306 350.272 527.852L348.844 527.075C349.054 526.599 349.383 526.165 349.831 525.773C350.293 525.381 350.818 525.073 351.406 524.849C351.994 524.611 352.603 524.492 353.233 524.492C354.059 524.492 354.787 524.653 355.417 524.975C356.061 525.297 356.558 525.745 356.908 526.319C357.272 526.879 357.454 527.53 357.454 528.272V536H355.879V533.753L356.11 533.984C355.914 534.404 355.606 534.789 355.186 535.139C354.78 535.475 354.297 535.748 353.737 535.958C353.191 536.154 352.589 536.252 351.931 536.252ZM366.805 536.252C365.839 536.252 364.964 536.035 364.18 535.601C363.41 535.153 362.829 534.523 362.437 533.711L362.689 533.48V536H361.114V520.103H362.689V527.264L362.437 526.823C362.885 526.109 363.48 525.542 364.222 525.122C364.978 524.702 365.839 524.492 366.805 524.492C367.869 524.492 368.814 524.751 369.64 525.269C370.48 525.773 371.138 526.466 371.614 527.348C372.104 528.23 372.349 529.238 372.349 530.372C372.349 531.492 372.104 532.5 371.614 533.396C371.138 534.278 370.48 534.978 369.64 535.496C368.814 536 367.869 536.252 366.805 536.252ZM366.721 534.677C367.477 534.677 368.149 534.488 368.737 534.11C369.339 533.732 369.808 533.221 370.144 532.577C370.494 531.919 370.669 531.184 370.669 530.372C370.669 529.546 370.494 528.811 370.144 528.167C369.808 527.523 369.339 527.012 368.737 526.634C368.149 526.256 367.477 526.067 366.721 526.067C365.965 526.067 365.279 526.256 364.663 526.634C364.061 527.012 363.578 527.53 363.214 528.188C362.864 528.832 362.689 529.56 362.689 530.372C362.689 531.184 362.864 531.919 363.214 532.577C363.578 533.221 364.061 533.732 364.663 534.11C365.279 534.488 365.965 534.677 366.721 534.677ZM375.54 536V524.744H377.115V536H375.54ZM375.54 522.665V520.355H377.115V522.665H375.54ZM380.759 536V520.103H382.334V536H380.759ZM385.978 536V524.744H387.553V536H385.978ZM385.978 522.665V520.355H387.553V522.665H385.978ZM395.502 536.126C394.494 536.126 393.717 535.832 393.171 535.244C392.625 534.656 392.352 533.816 392.352 532.724V526.319H390.273V524.744H390.798C391.274 524.744 391.652 524.59 391.932 524.282C392.212 523.96 392.352 523.561 392.352 523.085V522.14H393.927V524.744H396.405V526.319H393.927V532.724C393.927 533.102 393.983 533.438 394.095 533.732C394.207 534.012 394.396 534.236 394.662 534.404C394.942 534.572 395.313 534.656 395.775 534.656C395.887 534.656 396.02 534.649 396.174 534.635C396.328 534.621 396.461 534.607 396.573 534.593V536C396.405 536.042 396.216 536.07 396.006 536.084C395.796 536.112 395.628 536.126 395.502 536.126ZM399.99 540.62C399.766 540.62 399.535 540.599 399.297 540.557C399.073 540.529 398.849 540.473 398.625 540.389V538.919C398.765 538.933 398.94 538.954 399.15 538.982C399.374 539.024 399.598 539.045 399.822 539.045C400.508 539.045 401.033 538.898 401.397 538.604C401.761 538.324 402.118 537.778 402.468 536.966L403.182 535.286L403.14 536.672L398.373 524.744H400.074L403.98 534.593H403.539L407.424 524.744H409.167L404.022 537.428C403.798 537.974 403.511 538.492 403.161 538.982C402.825 539.472 402.398 539.864 401.88 540.158C401.362 540.466 400.732 540.62 399.99 540.62Z" fill="#A6A1AC"/>
<line x1="350.5" y1="1" x2="350.5" y2="227" stroke="#2171E4"/>
<rect x="240.778" y="227.778" width="218.444" height="218.444" stroke="url(#paint2_linear_1_1744)" stroke-width="1.55574"/>
<g clip-path="url(#clip0_1_1744)">
<path d="M355.817 325.264C355.817 326.169 356.552 326.904 357.458 326.904H360.193V346.375H340.722V326.904H350.457C351.363 326.904 352.098 326.169 352.098 325.264C352.098 324.358 351.363 323.623 350.457 323.623H339.956C338.569 323.623 337.44 324.752 337.44 326.139V347.141C337.44 348.528 338.569 349.657 339.956 349.657H360.958C362.345 349.657 363.474 348.528 363.474 347.141V326.139C363.474 324.752 362.345 323.623 360.958 323.623H357.458C356.552 323.623 355.817 324.358 355.817 325.264Z" fill="#4B505C"/>
<path d="M303.53 287.197C302.143 287.197 301.014 288.326 301.014 289.713V301.089C301.014 302.476 302.143 303.605 303.53 303.605H314.906C316.293 303.605 317.422 302.476 317.422 301.089V289.713C317.422 288.326 316.293 287.197 314.906 287.197H303.53ZM314.141 300.323H304.296V290.478H314.141V300.323Z" fill="#4B505C"/>
<path d="M314.906 369.675H303.53C302.143 369.675 301.014 370.804 301.014 372.191V383.567C301.014 384.954 302.143 386.083 303.53 386.083H314.906C316.293 386.083 317.422 384.954 317.422 383.567V372.191C317.422 370.804 316.293 369.675 314.906 369.675ZM314.141 382.802H304.296V372.957H314.141V382.802Z" fill="#4B505C"/>
<path d="M381.195 310.168H402.198C404.55 310.168 406.464 308.255 406.464 305.902V284.9C406.464 282.547 404.55 280.633 402.198 280.633H381.195C378.842 280.633 376.929 282.547 376.929 284.9V293.76H357.239C356.333 293.76 355.598 294.495 355.598 295.401V317.06H346.629V310.652C348.539 309.974 349.91 308.15 349.91 306.011C349.91 303.297 347.702 301.089 344.988 301.089C342.274 301.089 340.065 303.297 340.065 306.011C340.065 308.15 341.437 309.974 343.347 310.652V317.06H336.016C333.182 317.06 330.877 319.365 330.877 322.199V331.717H310.859V310.168H319.719C322.072 310.168 323.985 308.255 323.985 305.902V301.636C323.985 300.73 323.25 299.995 322.345 299.995C321.439 299.995 320.704 300.73 320.704 301.636V305.902C320.704 306.445 320.262 306.886 319.719 306.886H298.717C298.174 306.886 297.732 306.445 297.732 305.902V284.9C297.732 284.357 298.174 283.915 298.717 283.915H319.719C320.262 283.915 320.704 284.357 320.704 284.9V294.635C320.704 295.541 321.439 296.276 322.345 296.276C323.25 296.276 323.985 295.541 323.985 294.635V284.9C323.985 282.547 322.072 280.633 319.719 280.633H298.717C296.364 280.633 294.451 282.547 294.451 284.9V305.902C294.451 308.255 296.364 310.168 298.717 310.168H307.577V333.358C307.577 334.264 308.312 334.999 309.218 334.999H330.877V342H328.626C327.948 340.09 326.124 338.718 323.985 338.718C321.271 338.718 319.063 340.927 319.063 343.641C319.063 346.355 321.271 348.563 323.985 348.563C326.124 348.563 327.948 347.192 328.626 345.282H330.877V351.081C330.877 353.915 333.182 356.22 336.016 356.22H343.347V375.71H323.985V367.378C323.985 365.025 322.072 363.112 319.719 363.112H298.717C296.364 363.112 294.451 365.025 294.451 367.378V388.38C294.451 390.733 296.364 392.646 298.717 392.646H319.719C322.072 392.646 323.985 390.733 323.985 388.38V378.992H344.988C345.894 378.992 346.629 378.257 346.629 377.351V356.22H355.598V363.503C353.688 364.181 352.317 366.005 352.317 368.144C352.317 370.858 354.525 373.066 357.239 373.066C359.953 373.066 362.162 370.858 362.162 368.144C362.162 366.005 360.79 364.181 358.88 363.503V356.22H364.898C367.732 356.22 370.038 353.915 370.038 351.081V339.91H390.058V363.112H381.195C378.842 363.112 376.929 365.025 376.929 367.378V371.644C376.929 372.55 377.664 373.285 378.57 373.285C379.476 373.285 380.211 372.55 380.211 371.644V367.378C380.211 366.835 380.652 366.393 381.195 366.393H402.198C402.74 366.393 403.182 366.835 403.182 367.378V388.38C403.182 388.923 402.74 389.365 402.198 389.365H381.195C380.652 389.365 380.211 388.923 380.211 388.38V378.617C380.211 377.712 379.476 376.977 378.57 376.977C377.664 376.977 376.929 377.712 376.929 378.617V388.38C376.929 390.733 378.842 392.646 381.195 392.646H402.198C404.55 392.646 406.464 390.733 406.464 388.38V367.378C406.464 365.025 404.55 363.112 402.198 363.112H393.34V338.27C393.34 337.364 392.605 336.629 391.699 336.629H370.038V331.061H377.856C378.534 332.971 380.358 334.343 382.497 334.343C385.211 334.343 387.419 332.135 387.419 329.42C387.419 326.706 385.211 324.498 382.497 324.498C380.358 324.498 378.534 325.87 377.856 327.78H370.038V322.199C370.038 319.365 367.732 317.06 364.898 317.06H358.88V297.042H376.929V305.902C376.929 308.255 378.842 310.168 381.195 310.168ZM344.988 304.371C345.893 304.371 346.629 305.106 346.629 306.011C346.629 306.916 345.893 307.652 344.988 307.652C344.083 307.652 343.347 306.916 343.347 306.011C343.347 305.106 344.083 304.371 344.988 304.371ZM323.985 345.282C323.08 345.282 322.345 344.546 322.345 343.641C322.345 342.736 323.08 342 323.985 342C324.89 342 325.626 342.736 325.626 343.641C325.626 344.546 324.89 345.282 323.985 345.282ZM320.704 388.38C320.704 388.923 320.262 389.365 319.719 389.365H298.717C298.174 389.365 297.732 388.923 297.732 388.38V367.378C297.732 366.835 298.174 366.393 298.717 366.393H319.719C320.262 366.393 320.704 366.835 320.704 367.378V388.38ZM357.239 369.784C356.334 369.784 355.598 369.049 355.598 368.144C355.598 367.239 356.334 366.503 357.239 366.503C358.144 366.503 358.88 367.239 358.88 368.144C358.88 369.049 358.144 369.784 357.239 369.784ZM382.497 327.78C383.402 327.78 384.138 328.515 384.138 329.42C384.138 330.325 383.402 331.061 382.497 331.061C381.592 331.061 380.856 330.325 380.856 329.42C380.856 328.515 381.592 327.78 382.497 327.78ZM366.756 322.199V351.081C366.756 352.105 365.923 352.939 364.898 352.939H336.016C334.992 352.939 334.158 352.105 334.158 351.081V322.199C334.158 321.174 334.992 320.341 336.016 320.341H364.898C365.923 320.341 366.756 321.174 366.756 322.199ZM381.195 283.915H402.198C402.74 283.915 403.182 284.357 403.182 284.9V305.902C403.182 306.445 402.74 306.886 402.198 306.886H381.195C380.652 306.886 380.211 306.445 380.211 305.902V295.443C380.212 295.429 380.213 295.415 380.213 295.401C380.213 295.386 380.212 295.373 380.211 295.358V284.9C380.211 284.357 380.652 283.915 381.195 283.915Z" fill="#4B505C"/>
<path d="M386.008 303.605H397.384C398.771 303.605 399.9 302.476 399.9 301.089V289.713C399.9 288.326 398.771 287.197 397.384 287.197H386.008C384.621 287.197 383.492 288.326 383.492 289.713V301.089C383.492 302.476 384.621 303.605 386.008 303.605ZM386.774 290.478H396.619V300.323H386.774V290.478Z" fill="#4B505C"/>
<path d="M397.384 386.083C398.771 386.083 399.9 384.954 399.9 383.567V372.191C399.9 370.804 398.771 369.675 397.384 369.675H386.008C384.621 369.675 383.492 370.804 383.492 372.191V383.567C383.492 384.954 384.621 386.083 386.008 386.083H397.384ZM386.774 372.957H396.619V382.802H386.774V372.957Z" fill="#4B505C"/>
</g>
<defs>
<linearGradient id="paint0_linear_1_1744" x1="898" y1="227" x2="898" y2="447" gradientUnits="userSpaceOnUse">
<stop stop-color="#197EDB" stop-opacity="0.5"/>
<stop offset="0.165" stop-color="#0D3775" stop-opacity="0"/>
<stop offset="0.79" stop-color="#0D5075" stop-opacity="0"/>
<stop offset="1" stop-color="#19A1DB" stop-opacity="0.5"/>
</linearGradient>
<linearGradient id="paint1_linear_1_1744" x1="624" y1="117" x2="624" y2="337" gradientUnits="userSpaceOnUse">
<stop stop-color="#197EDB" stop-opacity="0.5"/>
<stop offset="0.165" stop-color="#0D3775" stop-opacity="0"/>
<stop offset="0.79" stop-color="#0D5075" stop-opacity="0"/>
<stop offset="1" stop-color="#19A1DB" stop-opacity="0.5"/>
</linearGradient>
<linearGradient id="paint2_linear_1_1744" x1="350" y1="227" x2="350" y2="447" gradientUnits="userSpaceOnUse">
<stop stop-color="#197EDB" stop-opacity="0.5"/>
<stop offset="0.165" stop-color="#0D3775" stop-opacity="0"/>
<stop offset="0.79" stop-color="#0D5075" stop-opacity="0"/>
<stop offset="1" stop-color="#19A1DB" stop-opacity="0.5"/>
</linearGradient>
<clipPath id="clip0_1_1744">
<rect width="112.013" height="112.013" fill="white" transform="translate(294.451 280.633)"/>
</clipPath>
</defs>
</svg>
